<svg id="Layer_1" data-name="Layer 1" xmlns="http://www.w3.org/2000/svg" viewBox="0 0 1303 744.9999"><title>home_illa</title><circle cx="485" cy="100" r="42" fill="#2f2e41"/><circle cx="444" cy="549" r="15" fill="#2f2e41"/><circle cx="681" cy="447" r="141" fill="#e79798" opacity="0.7"/><circle cx="271" cy="608.5" r="40.5" fill="#575a89" opacity="0.5"/><circle cx="908.5" cy="276.5" r="25.5" fill="#2f2e41"/><circle cx="237" cy="30" r="30" fill="#e79798"/><circle cx="24" cy="295" r="24" fill="#2f2e41"/><circle cx="1279" cy="588" r="24" fill="#e79798"/><ellipse cx="1099.6284" cy="724.3765" rx="131" ry="20.6234" fill="#d6d6d6"/><path d="M2446.572,471.3807l-7.6152,106.0683,13.5985,26.6531s14.1424-66.9047,14.1424-69.08,2.1758-4.8955,2.1758-4.8955l-1.0879-3.2637s0-1.6318,2.1758-4.8954-2.1758-3.2637-2.1758-3.2637-.5439-1.0878,2.1758-3.8075,0-6.5273,0-6.5273l4.8955-66.9047-4.3515-10.3348Z" transform="translate(-1309 -178)" fill="#e79798"/><path d="M2335.6266,595.1279c1.8328,4.0169-12.6545,49.3034-19.111,34.9588s9.0931-39.6884,9.0931-39.6884S2333.7938,591.111,2335.6266,595.1279Z" transform="translate(-1309 -178)" fill="#ffb9b9"/><path d="M2452.5553,865.1934l4.3515,20.67v13.0546s11.4228,10.3349,23.3895,7.6152,3.2636-21.7576,3.2636-21.7576l-5.9833-19.5819Z" transform="translate(-1309 -178)" fill="#2f2e41"/><path d="M2354.646,869.001s-3.2636,22.3015-8.1591,26.1091,1.6318,6.5273,2.1758,9.247,21.7576,2.1758,27.741,0,3.2636-39.1637,3.2636-39.1637Z" transform="translate(-1309 -178)" fill="#2f2e41"/><path d="M2394.3537,513.808c-5.4395-1.0879-40.2517,0-44.0592,1.0879s-16.3182,112.5956-16.3182,112.5956-24.4773,236.07-25.5651,244.7731,72.344,3.8077,77.7834,1.0879-3.2636-179.5,0-184.94,7.0712-37.5318,7.0712-37.5318l20.1258,89.75s1.6318,127.282,3.2637,131.6335,60.3773,2.1758,65.8167-1.0879-16.8621-183.8518-23.3894-243.1412-24.4773-96.8214-24.4773-96.8214V514.8959S2399.7931,514.8959,2394.3537,513.808Z" transform="translate(-1309 -178)" fill="#2f2e41"/><circle cx="1084.2658" cy="170.9941" r="31.0046" fill="#ffb9b9"/><path d="M2412.8476,363.1366c-.5439,3.8076,26.1092,36.444,26.1092,36.444s-44.0592,13.0546-40.2516,6.5273-11.9667-31.0046-11.9667-31.0046S2413.3916,359.329,2412.8476,363.1366Z" transform="translate(-1309 -178)" fill="#ffb9b9"/><path d="M2376.4036,450.1671s-10.8788,57.1137-10.8788,63.097,56.57,2.72,67.9925,3.8076,6.5273-2.1757,5.4394-5.9833,3.8076-16.3182,3.8076-16.3182,7.6152-11.4228,8.1591-18.494,2.1758-5.9833,8.1591-10.3349,15.7743-24.4773,15.7743-24.4773-4.3515-19.5818-4.3515-23.3894-27.741-18.494-29.9167-20.67-10.3349-11.9666-11.4228-11.9666-35.9,4.8954-35.9,4.8954a52.32,52.32,0,0,1-6.5272,8.1591c-3.8076,3.8076-32.6365,13.0546-32.6365,13.0546Z" transform="translate(-1309 -178)" fill="#e79798"/><path d="M2379.6673,442.5517s-5.9833,81.5911-4.3515,84.3108-1.6318,3.8075-3.8076,4.8954-3.8076,7.0713-3.8076,8.7031-24.4773,48.9546-23.9334,50.5864-4.3515,5.4395-4.8954,9.2471-.544,4.3515-2.72,5.4394,0,1.6318-.5439,4.8954-13.5986-2.1757-16.3183-4.8954,1.6318-1.6319-.5439-5.9834,2.72-7.6152,2.72-11.4227,4.3515-4.8955,4.3515-4.8955,15.7743-67.4485,19.5819-71.8,3.8076-55.4819,4.3515-76.6956,4.3515-23.3894,4.3515-23.3894l10.3349,1.0879Z" transform="translate(-1309 -178)" fill="#e79798"/><path d="M2461.67,427.86c-1.96-2.81-4.27-5.45-5.8-8.5,0-.01-.01-.02-.01-.03-1.47-4.92-1.05-10.19-.94-16.83a21.5979,21.5979,0,0,0-.27-5.9,13.8981,13.8981,0,0,0-3.54-5.79c-4.2591-4.6387-9.6479-8.0938-11.081-14.5634-.6994-3.1573-.8494-6.44-1.8543-9.5135-.9959-3.0464-2.79-5.7608-4.1221-8.6758-2.2641-4.9533-2.1475-9.6869-2.909-14.8786a29.7991,29.7991,0,0,0-4.8181-11.8912A35.0107,35.0107,0,0,0,2405.18,316.6c-13.69-3.07-28.63,2.41-38.13,12.73-2.1,2.28-6.24,9.79-.57,10.03,2.07.08,2.41-.59,3.74,1.28,1.45,2.03,2.35,4,4.36,5.62,5.36,4.31,13.46,5.03,17.4,10.66,2.96,4.24,2.55,9.97,1.23,14.98-1.67,6.32-4.58,12.33-5.57,18.8a21.9952,21.9952,0,0,0,1.3691,12.22,16.1031,16.1031,0,0,0,3.283,4.6755,17.3013,17.3013,0,0,1,3.5283,4.3669,13.14,13.14,0,0,1,.2236,10.901c-1.4748,3.49-3.9648,6.43-5.584,9.8464a20.5944,20.5944,0,0,0-.45,16.36c2.21,5.41,6.61,9.58,9.81,14.47s5.1,11.53,1.93,16.44c-1.4,2.15-3.61,3.68-4.99,5.85-2.51,3.95-1.69,9.3.78,13.27,2.46,3.97,6.3,6.86,10.04,9.66.548.41,1.0987.8181,1.6739,1.19a8.91,8.91,0,0,0,1.6544.8876c.5486.2084,1.1177.3555,1.6831.51.42.1147.839.2344,1.2657.3219.4195.0861.8474.1322,1.2715.19.0971.0132.1942.0273.2916.0376a18.42,18.42,0,0,0,2.4944.0938,19.75,19.75,0,0,0,4.9287-.7866,20.6344,20.6344,0,0,0,8.6086-5.0054,18.7113,18.7113,0,0,0,3.568-4.7982c1.87-3.62,2.76-7.99,5.9-10.54,2.7-2.18,6.56-2.56,9.05-4.98,3.4-3.3,2.89-8.93,1.57-13.51-1.29-4.45-3.11-9.13-1.9-13.56.03-.14.07-.28.11-.42a12.6525,12.6525,0,0,1,2.83-4.7c4.28-4.73,11.33-7.78,12.64-14.09C2466.08,435.47,2464.08,431.29,2461.67,427.86Zm-9.4-4.53a.8331.8331,0,0,0-.04-.15c.03.01.06.03.09.04Z" transform="translate(-1309 -178)" fill="#2f2e41"/><ellipse cx="2394.3244" cy="360.096" rx="2.6857" ry="6.1029" transform="translate(-1318.6333 -106.7742) rotate(-1.7009)" fill="#ffb9b9"/><rect x="127" y="94" width="628" height="391" rx="12.7815" fill="#fff"/><circle cx="137.5222" cy="104.5" r="4.5222" fill="#2f2e41"/><circle cx="151.5" cy="104.5" r="4.5222" fill="#e79798"/><circle cx="165.4778" cy="104.5" r="4.5222" fill="#575a89"/><rect x="138" y="118" width="606" height="147" fill="#d6d6d6" opacity="0.7"/><rect x="138" y="429" width="399" height="10" fill="#d6d6d6" opacity="0.7"/><rect x="138" y="445" width="399" height="10" fill="#d6d6d6" opacity="0.7"/><rect x="138" y="461" width="399" height="10" fill="#d6d6d6" opacity="0.7"/><rect x="138" y="477" width="292" height="8" fill="#d6d6d6" opacity="0.7"/><rect x="138" y="280" width="192" height="134" fill="#d6d6d6" opacity="0.7"/><rect x="345" y="280" width="192" height="134" fill="#d6d6d6" opacity="0.7"/><rect x="552" y="280" width="192" height="134" fill="#d6d6d6" opacity="0.7"/><rect x="552" y="429" width="192" height="56" fill="#d6d6d6" opacity="0.7"/><circle cx="751.5" cy="136.5" r="70.5" fill="#575a89" opacity="0.5"/><ellipse cx="808.5001" cy="644.5" rx="70.5" ry="20.5" fill="#d6d6d6"/><path d="M2046.3893,608.0722c6.886,7.6318,13.7734,15.279,20.1031,23.3851.0638.0816.6085.7831.3054.3911s.2384.3115.3014.3938q.5855.7657,1.1636,1.5369,1.1555,1.5417,2.2785,3.1072,2.2445,3.1314,4.34,6.3661a127.3559,127.3559,0,0,1,7.5308,13.287q.81,1.6635,1.566,3.3526.357.799.7014,1.6035c-.3071-.7179.0915.2225.1625.3954q.2259.55.4457,1.1035,1.554,3.9133,2.7922,7.9425a119.598,119.598,0,0,1,3.6837,15.8924q.2885,1.7654.5316,3.5374c-.104-.7521,0,.002.0157.1311.0458.3689.0932.7376.1378,1.1066q.1341,1.1062.2525,2.2142.4149,3.8742.6614,7.7639c.3483,5.3473.4959,10.7055.5679,16.063.1632,12.1314-.0329,24.27.6856,36.3877.1391,2.3455,1.97,4.6133,4.5,4.5,2.3188-.1039,4.6492-1.9834,4.5-4.5-1.3054-22.0156.3826-44.1473-2.6424-66.059a119.79,119.79,0,0,0-9.0469-32.2253,137.072,137.072,0,0,0-16.0211-26.6835c-7.1837-9.5647-15.1453-18.483-23.1522-27.3572a4.5311,4.5311,0,0,0-6.364,0,4.6026,4.6026,0,0,0,0,6.364Z" transform="translate(-1309 -178)" fill="#46af8c"/><path d="M2155.122,643.1986a148.0194,148.0194,0,0,0-31.2416,49.7071c-6.8186,17.9461-10.0828,37.1771-10.595,56.3325a214.2179,214.2179,0,0,0,1.6954,32.5348c.2936,2.3266,1.8591,4.6183,4.5,4.5,2.1853-.0979,4.8156-1.9986,4.5-4.5a216.8008,216.8008,0,0,1-1.7618-28.52q.0454-7.1046.61-14.1932.2794-3.4692.6923-6.9258.0942-.7881.1955-1.5752c.03-.2375.1519-1.1266.0217-.18q.054-.3927.1091-.7851.2493-1.7639.5351-3.5224a159.4953,159.4953,0,0,1,6.699-26.7081q1.1607-3.3444,2.48-6.631c.1956-.4872.3957-.9725.5947-1.4583.3288-.8029.0712-.177.0029-.015q.1914-.4539.3874-.9058.7035-1.63,1.4468-3.2416,2.9486-6.3934,6.52-12.4741a139.6963,139.6963,0,0,1,8.7066-13.0664q.2448-.326.4913-.6505c.0379-.05.8531-1.1.2923-.3842.4212-.5374.8427-1.0746,1.27-1.6073q1.2888-1.6068,2.6241-3.1757,2.7032-3.1771,5.5888-6.1912a4.5,4.5,0,1,0-6.364-6.3639Z" transform="translate(-1309 -178)" fill="#46af8c"/><path d="M2143.8808,826.1986h-52.7616a9.7035,9.7035,0,0,1-9.5351-7.9043L2062.0382,714.701a9.7033,9.7033,0,0,1,9.5351-11.5024h91.8534a9.7033,9.7033,0,0,1,9.5351,11.5024l-19.5459,103.5933A9.7035,9.7035,0,0,1,2143.8808,826.1986Z" transform="translate(-1309 -178)" fill="#2f2e41"/><path d="M2124.5,714.5c-4,1-10.2844,1.0229-12,1-2.1636-.0289-3.31-3.3-4.375-5.1837-4.1288-7.3037-5.118-15.9457-5.3619-24.3321-.1133-3.8965-.0315-8.0035,1.9217-11.377,2.2763-3.9315,6.7607-6.2583,8.8239-10.3057a26.088,26.088,0,0,1-8.3386,1.4722,3.9309,3.9309,0,0,1-1.9614-.3432,4.0949,4.0949,0,0,1-1.5-1.8936,52.02,52.02,0,0,1-3.1467-7.9012,23.2026,23.2026,0,0,1-1.17-10.2605c1.0355-6.6744,5.4239-12.2264,11.1077-15.8752,3.04-1.9517,6.3932-4.2064,10-4,11.8681-.84,25.2191,6.5806,32.1911,16.2215s10.2194,21.45,12.4986,33.1268a251.02,251.02,0,0,1,4.315,60.8519c-.7492,14.629-3.225,30.1862-13.0906,41.0139-1.8741,2.0567-4.1015,3.9621-6.8081,4.6074-6.8066,1.6226-12.5834-5.0513-15.8979-11.2138a111.0318,111.0318,0,0,1-9.92-25.635c-2.01-8.0407-2.667-17.7289,3.3292-23.4506,4.65-4.4367,11.9741-5.0434,16.7189-9.3783a49.647,49.647,0,0,0-18.04,2.9565M2138,749c-.3509.5064.1317.867.6272.9679a4.3621,4.3621,0,0,0,3.45-1.2695,31.8663,31.8663,0,0,0,5.1969-5.9517l4.3551-5.9131a6.031,6.031,0,0,0,1.0718-1.9026,2.0482,2.0482,0,0,0-.45-2.0384,1.9216,1.9216,0,0,0-1.4676-.4381,3.9924,3.9924,0,0,0-1.4849.4983,13.2413,13.2413,0,0,0-3.4774,2.8369,31.24,31.24,0,0,0-5.8452,9.1584q-.442,1.0823-.9529,2.1347-.2551.5258-.5273,1.0433A7.37,7.37,0,0,0,2138,749m-16-67a5.9585,5.9585,0,0,0-1.8329,3.5434,7.7794,7.7794,0,0,0,1.9957,5.3863,4.7422,4.7422,0,0,0,2.1554,1.5469,5.21,5.21,0,0,0,3.1038-.2295,18.0914,18.0914,0,0,0,5.3553-3.0211,38.5949,38.5949,0,0,0,6.4624-6.53,1.7237,1.7237,0,0,0,.5283-1.5317,1.5356,1.5356,0,0,0-.8247-.7713,10.5818,10.5818,0,0,0-5.3075-.8581A48.7885,48.7885,0,0,0,2122,682m-2.5-37.5c-3,0-3.3732,1.591-4.1672,2.4985a2.8025,2.8025,0,0,0-.39,3.3322c.95,1.3531,2.9762,1.1616,4.5945.8222l5.9146-1.24a3.0837,3.0837,0,0,0,1.9817-.9274c1.0666-1.485.62-2.2273.0666-3.485-.55-1.2491-3-1-5-1h-3" transform="translate(-1309 -178)" fill="#46af8c"/><path d="M2194.5,787.5c-4.2494,8.3477-15.0284,14.7336-23.29,18.48-.69.3132-1.5518.5991-2.1555.14a2.1947,2.1947,0,0,1-.5612-1.8516c.5036-31.0974,2.7641-62.2363.626-93.2643s-8.945-62.3787-25.2-88.8944l1.5048,2.0018c-2.7143-2.27-3.5614-6.27-2.6886-9.6988a17.013,17.013,0,0,1,5.94-8.5849c7.3554-6.1,17.4135-8.0136,26.9623-7.6527,8.8262.3336,18.0711,2.7085,24.2039,9.0647,8.2092,8.5083,9.0014,21.7616,8.8816,32.9305a4.913,4.913,0,0,1-.6432,2.8743,3.9861,3.9861,0,0,1-2.7558,1.3748c-6.043.8423-12.12,1.5407-18.1761,2.3213,1.6705-.2154,4.5679,1.1876,6.2208,1.6173l7.11,1.8484c2.9.7541,9.9658,1.1516,11.3246,4.3a8.7091,8.7091,0,0,1,.495,3.3033c.37,18.841-1.0053,37.2958-5.8053,55.5911-.8687,3.3114-2.5634,7.2357-5.9762,7.5053-2.14.169-4.058-1.2575-6.1548-1.7166s-4.9812,1.1113-4.2286,3.1214a3.8774,3.8774,0,0,0,1.8986,1.7687c3.2309,1.85,5.9352,2.9692,7.7148,6.3062a23.2822,23.2822,0,0,1,2.5651,11.0441c-.0139,3.9367-.6207,7.8348-.8536,11.7585-.2263,3.8127.3227,7.4931-.0874,11.2767a61.0279,61.0279,0,0,1-6.3377,22.1734m-19.6275-162.2846c-1.3605,4.39,5.4508,4.0113,7.7984,3.4707a58.4941,58.4941,0,0,1,6.82-1.0917c1.4042-.1549,3.027-.7508,1.8417-2.4157-.716-1.0057-2.5671-1.0862-3.6585-.98l-12.95,1.2564m8.589,41.7657c2.7852,2.2423,5.4972,4.5819,8.2419,6.8736a3.1356,3.1356,0,0,0,1.5065.84,2.4387,2.4387,0,0,0,2.271-1.5471,5.1438,5.1438,0,0,0-1.332-6.12,7.25,7.25,0,0,0-5.4519-1.2067,40.5277,40.5277,0,0,0-5.5762,1.3346m-1.1323,75.6846q1.179,14.5327,2.36,29.0653a3.7153,3.7153,0,0,0,.5351,1.9583c1.1245,1.5106,2.2768-.0267,2.3879-1.2543.2117-2.3391.3416-4.685.4407-7.0316a72.3636,72.3636,0,0,0-.1533-10.7754c-.4309-4.0118-1.59-8.2065-4.5926-10.9019m-.9024-56.5467a70.5414,70.5414,0,0,1,3.6934,6.5447,69.1624,69.1624,0,0,0,3.4027,6.61q.079.1259.1595.2509a6.139,6.139,0,0,0,2.7071,2.592,1.2241,1.2241,0,0,0,1.175-.0327,1.4135,1.4135,0,0,0,.3834-.5769,8.168,8.168,0,0,0,.8785-4.5189c-.3349-2.0695-1.9319-3.6718-3.446-5.1218l-4.3166-4.1342a10.0535,10.0535,0,0,0-4.1491-2.8078c-.3927-.1029-1.231-.1965-.9371.4614.1783.3991-.2864-.3059,0,0" transform="translate(-1309 -178)" fill="#46af8c"/><path d="M2068.5623,686.3013a43.1336,43.1336,0,0,0-17.0162-5.8648c3.893,5.4951,10.899,7.2166,14.6831,12.8112,4.88,7.2148,2.6555,17.8854-.6113,26.532a136.1463,136.1463,0,0,1-13.8219,27.0645c-4.2248,6.3731-10.9221,12.9623-17.2594,10.186-2.52-1.104-4.3688-3.54-5.85-6.0929-7.7973-13.4414-7.6509-31.0811-5.9817-47.4425A322.0382,322.0382,0,0,1,2036.858,636.5c4.1238-12.6487,9.2082-25.3048,17.5509-35.02s22.51-16.05,33.8859-13.42c3.5328.2865,6.4163,3.2712,9.0459,5.8745a26.7568,26.7568,0,0,1,8.1755,19.2274,29.6229,29.6229,0,0,1-2.8154,11.2332,63.6549,63.6549,0,0,1-4.3467,8.329,4.55,4.55,0,0,1-1.7653,1.8894,3.4286,3.4286,0,0,1-1.959.1008,22.6939,22.6939,0,0,1-7.8482-2.8282c1.3386,4.7921,5.3078,8.0188,6.8721,12.7126,1.3422,4.0276.7489,8.6025.0008,12.9157-1.61,9.2832-3.9854,18.7439-9.187,26.2686-1.3415,1.9407-2.99,5.4112-5.0933,5.1339-1.6681-.22-7.7609-1.1441-11.4775-2.8272m-18.7473,36.4023a8.63,8.63,0,0,0-.3381-1.042q-.1791-.6137-.3406-1.2346-.3229-1.2414-.5747-2.508a36.0751,36.0751,0,0,0-4.17-11.0119,13.5241,13.5241,0,0,0-2.9087-3.6494,3.5917,3.5917,0,0,0-1.359-.7659,1.7257,1.7257,0,0,0-1.4954.2768,2.55,2.55,0,0,0-.77,2.2006,7.0923,7.0923,0,0,0,.7282,2.2672l3.2563,7.1928a34.82,34.82,0,0,0,4.0668,7.3562c.8194,1.0337,1.8922,2.0073,3.139,1.904.4972-.0413,1.0245-.373.767-.9858m26.4958-72.1554c-3.496-1.8128-7.05-3.6214-10.8841-4.4035a9.2133,9.2133,0,0,0-5.29.1944,1.6128,1.6128,0,0,0-.9264.7391,2.1116,2.1116,0,0,0,.2616,1.7774,41.1539,41.1539,0,0,0,5.2,8.18,17.2867,17.2867,0,0,0,4.7,4.1226,4.5033,4.5033,0,0,0,2.9735.6989,4.7271,4.7271,0,0,0,2.3443-1.4105,9.5142,9.5142,0,0,0,2.8184-5.6993,7.0621,7.0621,0,0,0-1.1978-4.1992m8.5674-41.3087-2.91-.429c-1.94-.286-4.2761-.9132-5.0143.396-.7433,1.3183-1.2977,2.0792-.5062,3.8818a2.8832,2.8832,0,0,0,1.7706,1.3138l5.5346,2.2241c1.5143.6085,3.4483,1.1111,4.5918-.2565a3.5052,3.5052,0,0,0,.1672-3.7582c-.6216-1.1218-.723-2.943-3.6334-3.372" transform="translate(-1309 -178)" fill="#46af8c"/><path d="M1987.7452,755.7277c-2.4132-8.139-2.9671-16.8888-2.5165-25.5431.222-4.2627,1.3573-8.2734,1.7623-12.542.4167-4.3929.4666-8.8109,1.0979-13.187a29.3041,29.3041,0,0,1,4.2973-11.9042c2.273-3.4533,5.08-4.31,8.5171-5.9035a4.0688,4.0688,0,0,0,2.1316-1.6937c1.0593-2.1258-1.4817-4.2832-3.591-4.0729s-4.2038,1.5209-6.252,1.0271c-3.2666-.7877-4.2679-5.39-4.5683-9.1937-1.66-21.0144.0283-41.7162,3.4736-62.5974a11.09,11.09,0,0,1,1.0213-3.6c1.8339-3.3043,8.7532-2.7356,11.69-3.1587l7.2-1.0369c1.6739-.2411,4.7144-1.3856,6.3-.9075-5.7467-1.7333-11.5282-3.3784-17.2526-5.1784a3.76,3.76,0,0,1-2.4482-1.9218,6.18,6.18,0,0,1-.1532-3.2856c1.7131-12.4268,4.6524-27.0393,14.01-35.3188,6.9906-6.1854,16.3482-7.502,24.9652-6.61,9.3225.9645,18.7665,4.5293,24.9029,12.3586a19.3561,19.3561,0,0,1,4.3567,10.3882c.2851,3.9351-1.1917,8.2575-4.1968,10.3919l1.7877-2.0089c-20.1122,27.1369-31.8505,60.9972-39.0068,95.1665s-10.0637,69.091-14.6686,103.7153a2.7067,2.7067,0,0,1-.8478,1.9771c-.6608.4231-1.45-.0177-2.068-.4644-7.401-5.3444-16.8118-13.9812-19.567-23.8641m45.35-178.2523-12.3574-3.2479c-1.0413-.2737-2.85-.449-3.71.566-1.4226,1.68.0541,2.5747,1.391,2.9475a50.6836,50.6836,0,0,1,6.4376,2.1883c2.1888.9365,8.7345,2.3315,8.1338-2.7409M2018.6,623.9279a35.5949,35.5949,0,0,0-5.191-2.28,5.8366,5.8366,0,0,0-7.781,7.17c.282,1.0345.9877,2.0489,1.95,2.0437a2.9927,2.9927,0,0,0,1.599-.7176c3.0381-2.1537,6.0522-4.3654,9.1214-6.4585m-12.1184,85.536c-3.3543,2.5654-5.1658,7.06-6.2409,11.4563a93.0016,93.0016,0,0,0-1.9136,11.9506c-.2883,2.6215-.5465,5.2466-.7243,7.8759-.0933,1.38.7728,3.2527,2.1111,1.7351a4.6419,4.6419,0,0,0,.84-2.0993q3.5242-15.9787,7.05-31.9569m9.5708-62.4117c.328-.2989-.2383.418,0,0,.3929-.689-.4357-.7048-.8335-.6467-1.6554.2417-3.11,1.4026-4.485,2.5264l-4.8647,3.9762c-1.7063,1.3946-3.518,2.9465-4.1819,5.198a10.3241,10.3241,0,0,0,.1121,5.1465,1.6189,1.6189,0,0,0,.2775.6959,1.0685,1.0685,0,0,0,1.1344.2044,6.4675,6.4675,0,0,0,3.0508-2.4929q.0986-.1274.1958-.256c1.6248-2.1481,2.9672-4.5376,4.3838-6.858,1.4335-2.3482,3.0173-4.5745,4.6549-6.7436" transform="translate(-1309 -178)" fill="#46af8c"/><circle cx="55" cy="517" r="15" fill="#e79798"/></svg>