<?xml version="1.0" encoding="utf-8"?>
<!-- Generator: Adobe Illustrator 24.2.0, SVG Export Plug-In . SVG Version: 6.00 Build 0)  -->
<svg version="1.1" id="ad1dbded-e6d6-4106-9f5c-9042f8f56d9b"
	 xmlns="http://www.w3.org/2000/svg" xmlns:xlink="http://www.w3.org/1999/xlink" x="0px" y="0px" viewBox="0 0 884.7 576.5"
	 style="enable-background:new 0 0 884.7 576.5;" xml:space="preserve">
<style type="text/css">
	.st0{fill:#2F2E41;}
	.st1{fill:#E79798;}
	.st2{fill:#D0CDE1;}
	.st3{fill:#3F3D56;}
	.st4{fill:#FFFFFF;}
	.st5{opacity:0.1;enable-background:new    ;}
	.st6{fill:#FFB8B8;}
	.st7{opacity:0.2;enable-background:new    ;}
	.st8{fill:#F2F2F2;}
</style>
<g>
	<path class="st0" d="M723.3,112.7c23,33.6,17.9,77.1,17.9,77.1s-42.4-10.9-65.4-44.5s-17.9-77.1-17.9-77.1S700.3,79.1,723.3,112.7z
		"/>
	<path class="st1" d="M706.7,119.1c2.7,40.6,33.6,71.6,33.6,71.6s26.5-34.8,23.9-75.5s-33.6-71.6-33.6-71.6S704,78.5,706.7,119.1z"
		/>
	<path class="st2" d="M442.5,1.3L755,158.4c5.3,2.7,8.5,8.3,8.1,14.2l-18.2,268.9c-0.3,4-3.8,7.1-7.8,6.8c-1-0.1-1.9-0.3-2.8-0.8
		L414.7,284.4L431.1,7.8c0.3-4.3,4-7.6,8.3-7.4C440.5,0.5,441.5,0.8,442.5,1.3z"/>
	<path class="st3" d="M446.1,6.8L750.9,160c5.2,2.6,8.3,8.1,7.9,13.8l-17.7,262.3c-0.3,3.9-3.7,6.9-7.6,6.6c-1-0.1-1.9-0.3-2.7-0.8
		L419,283l16-269.8c0.3-4.2,3.9-7.4,8.1-7.2C444.1,6,445.2,6.3,446.1,6.8z"/>
	<path class="st4" d="M459.5,27.1L735.7,166c4.7,2.4,7.5,7.3,7.2,12.6l-16.1,237.8c-0.2,3.6-3.3,6.3-6.9,6c-0.9-0.1-1.7-0.3-2.5-0.7
		L434.9,277.5l14.5-244.6c0.2-3.8,3.5-6.8,7.3-6.5C457.7,26.5,458.6,26.7,459.5,27.1z"/>
	<path class="st2" d="M174.4,416.7l312.9,157.6c5.9,3,12.9,3,18.8,0l231.4-117.5c2.7-2.7,2.3-6.7,1.5-9.8c-0.4-1.5-1-2.9-1.7-4.2
		l-31.5-16.6L440.5,293.9l-15.8-8.4c-8.5-4.5-18.7-4.5-27.2-0.1L174.3,401.3c-4.2,2.2-5.9,7.4-3.7,11.7
		C171.4,414.6,172.7,415.9,174.4,416.7z"/>
	<path class="st5" d="M174.4,416.7l312.9,157.6c5.9,3,12.9,3,18.8,0l231.4-117.5c2.7-2.7,2.3-6.7,1.5-9.8L508.2,567
		c-5.7,3-12.5,3-18.3,0.2L169.7,407.6C169.1,411.4,171,415.1,174.4,416.7z"/>
	<path class="st5" d="M471.3,464L370,412.8c-4.1-2.1-9-2-13.1,0.1l-58.8,31.4c-2,1.1-2.8,3.6-1.7,5.7c0.4,0.8,1,1.4,1.8,1.8
		l103.3,52.1c3.5,1.8,7.6,1.7,11-0.3l59-33.2c1.7-1,2.4-3.2,1.4-4.9C472.5,464.8,472,464.3,471.3,464z"/>
	<path class="st5" d="M710,455.4l-109,57.9c-2.5,1.4-5.6,1.4-8.2,0.1L284.7,357.6c-2.6-1.3-3.6-4.5-2.3-7c0.5-1,1.3-1.8,2.4-2.3
		l106.5-52.7c3.3-1.6,7.1-1.6,10.3,0L709.9,451c1.2,0.6,1.7,2.1,1.1,3.4C710.8,454.8,710.4,455.2,710,455.4z"/>
	
		<rect x="585.2" y="136.1" transform="matrix(0.4472 -0.8944 0.8944 0.4472 152.0052 630.2186)" class="st1" width="1.2" height="112.1"/>
	
		<rect x="585.2" y="151.1" transform="matrix(0.4554 -0.8903 0.8903 0.4554 134.3984 634.5402)" class="st1" width="1.2" height="112.6"/>
	
		<rect x="582.2" y="192.3" transform="matrix(0.455 -0.8905 0.8905 0.455 117.6826 641.3466)" class="st1" width="1.2" height="64.5"/>
	<path class="st3" d="M240.5,270.5c0,0-24.4-10.7-35.9,0.6C193.1,282.4,235.3,278.7,240.5,270.5z"/>
	<path class="st0" d="M198.3,220c8.2-13.9,24.5-14.5,24.5-14.5s15.8-2,26,19.1c9.5,19.7,22.5,38.7,2.1,43.3l-3.7-11.5l-2.3,12.3
		c-2.9,0.2-5.8,0.3-8.7,0.1c-21.9-0.7-42.7,0.2-42.1-7.6C195,250.8,190.4,233.4,198.3,220z"/>
	<path class="st6" d="M186.8,471.6c0,0,10.4,19.3,17,19.3s5.9,12.6,4.4,15.6c-1.5,3-5.2,9.6,0.7,19.3c2.1,3.4,1.7,7.2,0.3,10.7
		c-3.8,9.9-18.6,6.9-18.1-3.7c0-0.1,0-0.2,0-0.4c0.7-11.9-5.2-30.4-11.1-34.8c-5.9-4.4-11.1-16.3-11.1-16.3L186.8,471.6z"/>
	<path class="st6" d="M257.9,467.2c0,0-10.4,19.3-17,19.3s-5.9,12.6-4.4,15.6c1.5,3,5.2,9.6-0.7,19.3c-2.1,3.4-1.7,7.2-0.3,10.7
		c3.8,9.9,18.6,6.9,18.1-3.7c0-0.1,0-0.2,0-0.4c-0.7-11.9,5.2-30.4,11.1-34.8c5.9-4.4,11.1-16.3,11.1-16.3L257.9,467.2z"/>
	<path class="st0" d="M249.8,372.4l4.4,9.6c0,0,65.2,21.5,59.3,46.7c-5.9,25.2-34.8,64.4-39.3,63s-28.1-5.9-28.9-18.5
		s17-34.8,17-34.8l-24.4-22.2l-35.6-0.7l-30.4,23c0,0,31.9,28.1,17.8,39.3s-34.8,18.5-37.8,14.1c-3-4.4-36.3-70.4-31.1-76.3
		s57.8-28.1,57.8-28.1l14.1-20l54.8-3L249.8,372.4z"/>
	<path class="st6" d="M236.4,250.1c0,0-3.7,24.4,3.7,27.4c7.4,3-14.8,15.6-14.8,15.6h-12.6l-8.1-17c0,0,7.4-13.3,3-25.9
		C203.1,237.5,236.4,250.1,236.4,250.1z"/>
	<path class="st5" d="M236.4,250.1c0,0-3.7,24.4,3.7,27.4c7.4,3-14.8,15.6-14.8,15.6h-12.6l-8.1-17c0,0,7.4-13.3,3-25.9
		C203.1,237.5,236.4,250.1,236.4,250.1z"/>
	<path class="st2" d="M241.6,270.9c0,0-8.1,8.9-9.6,10.4c-1.5,1.5-8.1,9.6-22.2-2.2c-14.1-11.9-15.6,2.2-15.6,2.2v88.9
		c0,0,11.9-5.2,21.5,0c9.6,5.2,29.6-1.5,29.6-1.5l3.7-91.9L241.6,270.9z"/>
	<path class="st3" d="M236.2,270.9c0,0,6.9-3,12.8,0c5.9,3,26.7,17.8,25.2,24.4s-20.7,53.3-7.4,75.6s15.6,28.1,15.6,28.1l-32.6-17
		c0,0-25.2-15.6-23-25.2C229,347.2,236.2,270.9,236.2,270.9z"/>
	<path class="st3" d="M206.8,270.9c0,0-15.5,1.5-16.3,3c-0.7,1.5-23.3,7.8-21.9,14.4c1.5,6.7,21.9,66.3,13,77.4
		c-8.9,11.1-23.7,26.7-18.5,28.1c5.2,1.5,14.1-2.2,23,0c8.9,2.2,29.6-16.3,27.4-36.3C211.2,337.5,213.4,276.1,206.8,270.9z"/>
	<path class="st6" d="M243.8,412.4v7.4c0,0,3.7,17-8.1,16.3c-11.9-0.7-4.4-20.7-4.4-20.7l0.7-6.7L243.8,412.4z"/>
	<path class="st6" d="M210.5,413.1c0,0,8.1,17,0,18.5s-14.1-9.6-14.1-12.6C196.4,416.1,210.5,413.1,210.5,413.1z"/>
	<ellipse class="st6" cx="199.8" cy="240.1" rx="1.5" ry="3"/>
	<ellipse class="st6" cx="243.5" cy="240.1" rx="1.5" ry="3"/>
	<path class="st3" d="M186.8,280.5c0,0-18.5,0-17.8,7.4s25.2,134.8,25.2,134.8s10.4-9.6,19.3-7.4L186.8,280.5z"/>
	<path class="st3" d="M258.6,282.7c0,0,18.5,3.7,18.5,14.8c0,11.1-26.7,117.8-30.4,117.8s-17.8-2.2-17.8-5.9
		S258.6,282.7,258.6,282.7z"/>
	<path class="st7" d="M254.6,304.6l-16.7,65.2C237.9,369.8,245.7,312.7,254.6,304.6z"/>
	<path class="st7" d="M189.7,295.4l16.9,85.2C206.6,380.6,201.2,300.3,189.7,295.4z"/>
	<circle class="st6" cx="221.6" cy="240.5" r="21.5"/>
	<polygon class="st0" points="201.9,218.7 218,210.2 240.2,213.7 244.7,233.9 233.3,233.5 230.1,226.1 230.1,233.4 224.9,233.2 
		221.8,221.3 219.9,233.9 201.2,233.6 	"/>
	<polyline class="st8" points="442.7,93.9 433.8,115 508.6,154.2 533.8,80.5 	"/>
	<polygon class="st1" points="506.9,141.3 539.9,63.6 464,26.3 432.1,102.1 	"/>
	<rect x="490" y="39" transform="matrix(0.455 -0.8905 0.8905 0.455 203.9805 475.7226)" class="st4" width="1.2" height="64.5"/>
	
		<rect x="485.7" y="49.3" transform="matrix(0.455 -0.8905 0.8905 0.455 192.4295 477.5206)" class="st4" width="1.2" height="64.5"/>
</g>
</svg>
