<?xml version="1.0" encoding="utf-8"?>
<!-- Generator: Adobe Illustrator 24.2.0, SVG Export Plug-In . SVG Version: 6.00 Build 0)  -->
<svg version="1.1" id="ad1dbded-e6d6-4106-9f5c-9042f8f56d9b"
	 xmlns="http://www.w3.org/2000/svg" xmlns:xlink="http://www.w3.org/1999/xlink" x="0px" y="0px" viewBox="0 0 884.7 576.5"
	 style="enable-background:new 0 0 884.7 576.5;" xml:space="preserve">
<style type="text/css">
	.st0{fill:#E6E6E6;}
	.st1{fill:#CCCCCC;}
	.st2{fill:#E79798;}
	.st3{opacity:0.2;enable-background:new    ;}
	.st4{fill:#2F2E41;}
	.st5{fill:#A0616A;}
	.st6{fill:#575A89;}
	.st7{fill:#3F3D56;}
	.st8{fill:#FFFFFF;}
	.st9{fill:#B3B3B3;}
	.st10{fill:#D0CDE1;}
</style>
<g>
	<rect x="504.7" y="213.5" class="st0" width="328.9" height="9.6"/>
	<rect x="531.9" y="132.8" class="st0" width="83.3" height="83.3"/>
	<rect x="548.5" y="149.5" class="st1" width="50" height="50"/>
	<rect x="718.7" y="132.8" class="st0" width="21.1" height="83.3"/>
	<rect x="718.7" y="145.9" class="st1" width="21.1" height="9.6"/>
	<rect x="718.7" y="188" class="st1" width="21.1" height="9.6"/>
	<rect x="686.3" y="132.8" class="st0" width="21.1" height="83.3"/>
	<rect x="686.3" y="145.9" class="st1" width="21.1" height="9.6"/>
	<rect x="686.3" y="188" class="st1" width="21.1" height="9.6"/>
	
		<rect x="756.4" y="132.8" transform="matrix(0.8962 -0.4437 0.4437 0.8962 2.2221 358.3979)" class="st0" width="21.1" height="83.3"/>
	
		<rect x="745.9" y="148.4" transform="matrix(0.8962 -0.4437 0.4437 0.8962 10.5478 351.5324)" class="st1" width="21.1" height="9.6"/>
	
		<rect x="764.6" y="186.1" transform="matrix(0.8962 -0.4437 0.4437 0.8962 -4.2534 363.7377)" class="st1" width="21.1" height="9.6"/>
	<polygon class="st0" points="563,166.2 573.6,184.6 584.2,203 563,203 541.8,203 552.4,184.6 	"/>
	<polygon class="st0" points="581.4,169.7 592,188.1 602.6,206.5 581.4,206.5 560.2,206.5 570.8,188.1 	"/>
	<circle class="st0" cx="588.9" cy="158.2" r="6.1"/>
	<rect x="504.7" y="81" class="st0" width="328.9" height="9.6"/>
	<rect x="723.1" y="0.3" class="st0" width="83.3" height="83.3"/>
	<rect x="739.8" y="17" class="st1" width="50" height="50"/>
	<rect x="598.5" y="0.3" class="st0" width="21.1" height="83.3"/>
	<rect x="598.5" y="13.5" class="st1" width="21.1" height="9.6"/>
	<rect x="598.5" y="55.6" class="st1" width="21.1" height="9.6"/>
	<rect x="631" y="0.3" class="st0" width="21.1" height="83.3"/>
	<rect x="631" y="13.5" class="st1" width="21.1" height="9.6"/>
	<rect x="631" y="55.6" class="st1" width="21.1" height="9.6"/>
	
		<rect x="529.7" y="31.5" transform="matrix(0.4437 -0.8962 0.8962 0.4437 280.2013 535.4015)" class="st0" width="83.3" height="21.1"/>
	
		<rect x="577" y="10.3" transform="matrix(0.4437 -0.8962 0.8962 0.4437 305.0666 533.0113)" class="st1" width="9.6" height="21.1"/>
	
		<rect x="558.4" y="48" transform="matrix(0.4437 -0.8962 0.8962 0.4437 260.8617 537.2604)" class="st1" width="9.6" height="21.1"/>
	<polygon class="st0" points="775.3,33.8 764.7,52.2 754.1,70.5 775.3,70.5 796.5,70.5 785.9,52.2 	"/>
	<polygon class="st0" points="756.9,37.3 746.3,55.7 735.7,74 756.9,74 778.1,74 767.5,55.7 	"/>
	<circle class="st0" cx="749.4" cy="25.8" r="6.1"/>
	<rect x="504.7" y="345.9" class="st0" width="328.9" height="9.6"/>
	<rect x="723.1" y="265.2" class="st0" width="83.3" height="83.3"/>
	<rect x="739.8" y="281.9" class="st1" width="50" height="50"/>
	<rect x="598.5" y="265.2" class="st0" width="21.1" height="83.3"/>
	<rect x="598.5" y="278.4" class="st1" width="21.1" height="9.6"/>
	<rect x="598.5" y="320.5" class="st1" width="21.1" height="9.6"/>
	<rect x="631" y="265.2" class="st0" width="21.1" height="83.3"/>
	<rect x="631" y="278.4" class="st1" width="21.1" height="9.6"/>
	<rect x="631" y="320.5" class="st1" width="21.1" height="9.6"/>
	
		<rect x="529.7" y="296.4" transform="matrix(0.4437 -0.8962 0.8962 0.4437 42.8151 682.7604)" class="st0" width="83.3" height="21.1"/>
	
		<rect x="577" y="275.1" transform="matrix(0.4437 -0.8962 0.8962 0.4437 67.6803 680.3703)" class="st1" width="9.6" height="21.1"/>
	
		<rect x="558.4" y="312.9" transform="matrix(0.4437 -0.8962 0.8962 0.4437 23.4754 684.6194)" class="st1" width="9.6" height="21.1"/>
	<polygon class="st0" points="775.3,298.7 764.7,317 754.1,335.4 775.3,335.4 796.5,335.4 785.9,317 	"/>
	<polygon class="st0" points="756.9,302.2 746.3,320.5 735.7,338.9 756.9,338.9 778.1,338.9 767.5,320.5 	"/>
	<circle class="st0" cx="749.4" cy="290.7" r="6.1"/>
	<ellipse class="st0" cx="438.6" cy="549" rx="387.5" ry="27.5"/>
	<path class="st2" d="M741.3,564.4c-63.2-11.2-132.3-9.4-204.7,0c33-27.9,61.5-55.8,28.5-83.7c64.4,13.3,73.5,11.9,145.1,0
		C693.5,508.7,724.6,536.5,741.3,564.4z"/>
	<path class="st3" d="M741.3,564.4c-63.2-11.2-132.3-9.4-204.7,0c33-27.9,61.5-55.8,28.5-83.7c64.4,13.3,73.5,11.9,145.1,0
		C693.5,508.7,724.6,536.5,741.3,564.4z"/>
	<path class="st2" d="M725.9,552.5c-53.7-9-112.4-7.5-173.9,0c28.1-22.3,52.3-44.5,24.2-66.8c54.7,10.6,62.4,9.5,123.3,0
		C685.3,508,711.7,530.3,725.9,552.5z"/>
	<circle class="st4" cx="705.4" cy="488.1" r="28.6"/>
	<polygon class="st5" points="575.6,454.9 595.4,458.2 605.3,486.8 576.7,504.4 543.7,454.9 574.5,454.9 	"/>
	<circle class="st5" cx="631.7" cy="452.7" r="46.2"/>
	<path class="st4" d="M376.4,284.3c0,0-112.3,12.1-132.1,9.9c-19.8-2.2-28.6-4.4-28.6-4.4s-13.2,17.6-6.6,25.3
		c3.7,4.4,8.2,8.2,13.2,11c0,0,12.1-3.3,20.9,0c8.8,3.3,98,17.6,113.4,4.4C372,317.3,376.4,284.3,376.4,284.3z"/>
	<path class="st4" d="M384.1,529.8c0,0-73.8-20.9-87-113.4v-8.8c0,0-14.6,25.6-19.8,30.8c-6.1,6.1-27.5,60.5-26.4,66
		c1.1,5.5,0,7.7,0,7.7l-31.9-3.3v-9.9c0,0,17.1-51.2,18.2-63.3c1.1-12.1,42.4-96.3,42.4-96.3s15.4-31.9,41.8,0
		c26.4,31.9,28.6,53.9,28.6,53.9l34.1,66V529.8z"/>
	<path class="st4" d="M219,286.5l-35.2-12.1c0,0-33-24.2-25.3,0c7.7,24.2,42.9,77.1,52.8,71.5c9.9-5.5,21.8-19.2,19.2-21.1
		C227.8,322.8,210.2,308.5,219,286.5z"/>
	<path class="st4" d="M223.2,492.4l-28.4,13.9c0,0-34.4,5.3-15.2,15.2c19.2,9.9,72.1,20.5,74.7,11.2s1.6-24.6-1.2-24.2
		C250.3,509,231.2,510.9,223.2,492.4z"/>
	<path class="st6" d="M369.8,457.1c0,0-14.3,61.6,9.9,74.9c24.2,13.2,193.7,15.4,206.9-8.8s6.6-24.2,6.6-24.2L558,459.3l28.6-2.2
		c0,0,0-8.8-9.9-9.9c-9.9-1.1-40.7-12.1-67.1-4.4s-41.8-15.4-41.8-15.4L369.8,457.1z"/>
	<polygon class="st7" points="351.1,264.5 332.3,366.8 461.1,351.4 484.2,259 	"/>
	<polygon class="st8" points="354.9,268.3 339.5,359.7 456.7,345.9 479.3,262.8 	"/>
	<polygon class="st9" points="336.7,367.9 332.3,366.8 330.1,371.2 365.4,469.2 368.7,467.9 369.8,461.5 	"/>
	<polygon class="st10" points="332.3,365.7 367.6,468.1 500.8,448.3 461.1,351.4 	"/>
	<polygon class="st7" points="350,362.4 350,367.9 447.9,356.9 446.8,351.4 	"/>
	<polygon class="st7" points="352.2,373.4 367.6,416.4 467.7,404.3 450.1,363.5 	"/>
	<path class="st5" d="M477.6,434l-3.3-8.8c0,0-25.3-44-38.5-35.2c-13.2,8.8,27.5,51.7,27.5,51.7h13.2L477.6,434z"/>
	<path class="st5" d="M394,440.6l-3.3-13.2c0,0-8.8-40.7,6.6-38.5c15.4,2.2,19.8,40.7,19.8,40.7l-1.1,8.8L394,440.6z"/>
	<path class="st6" d="M420.4,435.1c0,0-28.6-4.4-29.7,2.2s-6.6,105.7,20.9,109c27.5,3.3,164,17.6,149.7-16.5
		C547,495.6,525,500,525,500l-93.6,9.9L420.4,435.1z"/>
	<polygon class="st6" points="506.8,447.7 477.6,427.4 458.4,442.2 482.6,468.7 	"/>
	<polygon class="st3" points="428.7,467.6 433.1,509.4 509,505 443,503.9 	"/>
	<circle class="st4" cx="654.6" cy="461.1" r="55"/>
	<polygon class="st2" points="371.4,300.2 439.7,297.9 446.3,272.7 375.8,274.9 	"/>
	<polygon class="st0" points="353.8,314.6 457.3,311.3 458.4,306.8 354.9,310.5 	"/>
	<polygon class="st0" points="351.6,325.6 455.1,322.3 456.2,317.9 352.7,321.5 	"/>
	<polygon class="st0" points="350.5,334.4 454,331.1 455.1,326.7 351.6,330.3 	"/>
</g>
</svg>
