<?xml version="1.0" encoding="utf-8"?>
<!-- Generator: Adobe Illustrator 24.2.0, SVG Export Plug-In . SVG Version: 6.00 Build 0)  -->
<svg version="1.1" id="ad1dbded-e6d6-4106-9f5c-9042f8f56d9b"
	 xmlns="http://www.w3.org/2000/svg" xmlns:xlink="http://www.w3.org/1999/xlink" x="0px" y="0px" viewBox="0 0 884.7 576.5"
	 style="enable-background:new 0 0 884.7 576.5;" xml:space="preserve">
<style type="text/css">
	.st0{fill:#F2F2F2;}
	.st1{fill:#3F3D56;}
	.st2{opacity:0.2;enable-background:new    ;}
	.st3{fill:#CBCEDA;}
	.st4{fill:#E79798;}
	.st5{opacity:0.2;fill:#E79798;enable-background:new    ;}
	.st6{fill:#A0616A;}
	.st7{opacity:0.1;enable-background:new    ;}
	.st8{fill:#3C354C;}
	.st9{fill:#FFC1C7;}
	.st10{fill:none;stroke:#3F3D56;stroke-width:4;stroke-miterlimit:10;}
	.st11{fill:#656380;}
</style>
<g>
	<path class="st0" d="M170.9,385.7l-4.8-3c-0.5-0.3-0.9-0.6-1.4-0.9c24.9-4.3,41.6-28,37.4-52.9c-3-17.4-15.7-31.5-32.7-36.3
		l0.2,18.9L159.2,291h-0.1c-25.3-1.2-46.7,18.3-47.9,43.6c0,0.9,0,1.7,0,2.6c-3.6-4.1-6.9-8.5-9-13.4c-4.4-9.8-4.5-20.9-4.1-34.3
		c0.7-26.7,1.8-53.6,3.3-80.4c22.4-2.5,39.6-20.9,40.7-43.3c0.1-1.4,0-2.8,0-4.2c0-0.3,0-0.7-0.1-1c-0.1-1.3-0.2-2.6-0.4-3.9
		c0-0.2-0.1-0.4-0.1-0.6c-0.2-1.1-0.4-2.2-0.7-3.3c-0.1-0.4-0.2-0.8-0.3-1.2c-0.3-1.2-0.7-2.3-1.1-3.5c-0.1-0.4-0.3-0.8-0.4-1.1
		c-0.3-0.8-0.7-1.7-1-2.5c-0.2-0.4-0.4-0.9-0.6-1.3c-0.1-0.1-0.1-0.2-0.2-0.3l0,0c-10-19.7-32.6-29.5-53.8-23.2l0.3,24.6l-10.2-20.3
		c-17.3,9.9-26.1,29.9-21.8,49.3h-0.1c0.1,0.3,0.2,0.6,0.2,1c0.1,0.6,0.3,1.2,0.5,1.8c0.2,0.8,0.5,1.5,0.7,2.3
		c0.2,0.6,0.4,1.1,0.6,1.7c0.3,0.8,0.7,1.6,1,2.4c0.2,0.5,0.4,0.9,0.6,1.4c0.6,1.2,1.2,2.3,1.9,3.5c0.2,0.4,0.5,0.8,0.8,1.2
		c0.5,0.8,1,1.5,1.5,2.2c0.3,0.5,0.7,0.9,1,1.3c0.5,0.6,1,1.3,1.5,1.9c0.4,0.4,0.8,0.9,1.2,1.3c0.6,0.6,1.1,1.2,1.7,1.7
		c0.4,0.4,0.8,0.8,1.2,1.1c0.7,0.6,1.4,1.2,2.1,1.7c0.4,0.3,0.7,0.6,1.1,0.8c1.1,0.8,2.2,1.5,3.4,2.3c0.2,0.1,0.5,0.2,0.7,0.4
		c1,0.6,2,1.1,3,1.6c0.4,0.2,0.9,0.4,1.3,0.6c0.8,0.4,1.7,0.7,2.5,1.1l1.5,0.5c0.8,0.3,1.7,0.6,2.6,0.8c0.5,0.1,1,0.3,1.5,0.4
		c0.9,0.2,1.9,0.4,2.9,0.6l0.2,0c-0.6,11.3-1.2,22.6-1.7,34c-11.1-22.7-38.4-32.2-61.2-21.1c-0.8,0.4-1.6,0.8-2.4,1.2l8.1,22.2
		l-16.7-16c-8.9,8.2-14.3,19.5-14.8,31.6c-0.2,4.2,0.2,8.5,1.2,12.6c5.8,24.6,30.4,39.9,55,34.1c12.3-2.9,22.9-10.7,29.2-21.6
		c0,1.1-0.1,2.3-0.1,3.4c-0.3,11.9-0.7,26.7,5.2,39.9c4,8.9,10.5,16.2,16.8,22.7c4.2,4.2,8.5,8.3,12.9,12.3
		c4.3,5.8,10,10.6,16.5,13.8c7.3,5.6,14.8,10.8,22.5,15.7l4.8,3c4.4,2.7,8.8,5.5,13.2,8.4c-0.8-0.1-1.5-0.2-2.3-0.2
		c-19.9-0.9-38.1,11.1-45.1,29.8l28.6,23.3l-31.5-7.3c0,25.3,20.6,45.8,45.9,45.7c6.9,0,13.6-1.6,19.8-4.5l-2.1,2.6
		c-1.4,1.7-2.8,3.5-4.2,5.2c-18.6,23.6-23.8,46-14.6,63l11.2-6.1c-9-16.6,4.5-37.9,13.4-49.1c1.3-1.7,2.7-3.4,4.1-5.1
		c11.9-14.8,25.4-31.5,25-52.1C225.1,419.3,195.1,400.7,170.9,385.7z"/>
	<path class="st0" d="M691.6,332.7l5.4-3.4c0.5-0.3,1-0.7,1.5-1c-23.9-4.1-41.8-24.3-42.9-48.6c-0.4-8.1,1.1-16.2,4.5-23.6
		c6.3-14,18.5-24.5,33.2-28.7l-0.3,21.3l11.7-23.2h0.1c28.5-1.3,52.8,20.7,54.1,49.3c0,1,0,2,0,2.9c4.1-4.6,7.8-9.6,10.2-15.1
		c5-11.1,5.1-23.6,4.7-38.8c-0.8-30.2-2.1-60.6-3.8-90.9c-25.3-2.8-44.7-23.6-45.9-49c-0.1-1.6,0-3.1,0-4.7c0-0.4,0-0.8,0.1-1.2
		c0.1-1.5,0.2-3,0.5-4.5c0-0.2,0.1-0.5,0.1-0.7c0.2-1.2,0.5-2.5,0.8-3.7c0.1-0.5,0.2-0.9,0.3-1.4c0.4-1.3,0.8-2.6,1.2-3.9
		c0.2-0.4,0.3-0.8,0.5-1.3c0.4-0.9,0.8-1.9,1.2-2.8c0.2-0.5,0.4-1,0.7-1.4c0.1-0.1,0.1-0.2,0.2-0.4l0,0
		c11.3-22.3,36.8-33.3,60.7-26.2l-0.3,27.7l11.6-22.9c19.5,11.2,29.5,33.8,24.7,55.7h0.1c-0.1,0.4-0.2,0.7-0.3,1.1
		c-0.2,0.7-0.3,1.4-0.5,2c-0.2,0.9-0.5,1.7-0.8,2.6c-0.2,0.6-0.4,1.3-0.7,1.9c-0.4,0.9-0.7,1.8-1.1,2.7c-0.2,0.5-0.4,1.1-0.7,1.6
		c-0.7,1.3-1.4,2.6-2.1,3.9c-0.3,0.5-0.6,0.9-0.9,1.3c-0.6,0.9-1.1,1.7-1.7,2.5c-0.4,0.5-0.8,1-1.2,1.5c-0.6,0.7-1.1,1.4-1.8,2.1
		c-0.4,0.5-0.9,0.9-1.3,1.4c-0.6,0.7-1.3,1.3-2,1.9c-0.5,0.4-0.9,0.9-1.4,1.3c-0.8,0.7-1.6,1.3-2.4,1.9c-0.4,0.3-0.8,0.7-1.2,1
		c-1.2,0.9-2.5,1.8-3.8,2.6c-0.2,0.1-0.5,0.3-0.8,0.4c-1.1,0.6-2.2,1.2-3.3,1.8c-0.5,0.2-1,0.5-1.5,0.7c-0.9,0.4-1.9,0.8-2.8,1.2
		c-0.6,0.2-1.1,0.4-1.7,0.6c-1,0.3-1.9,0.6-2.9,0.9c-0.6,0.2-1.1,0.3-1.7,0.5c-1.1,0.2-2.1,0.5-3.2,0.6l-0.2,0
		c0.7,12.8,1.4,25.6,1.9,38.4c12.5-25.7,43.4-36.3,69.1-23.9c0.9,0.4,1.8,0.9,2.7,1.4l-9.1,25l18.8-18.1c10.1,9.2,16.2,22,16.8,35.7
		c0.2,4.8-0.2,9.6-1.3,14.2c-6.5,27.8-34.3,45.1-62.2,38.6c-13.9-3.3-25.8-12.1-33-24.5c0,1.3,0.1,2.6,0.1,3.9
		c0.3,13.4,0.8,30.1-5.9,45.1c-4.5,10.1-11.8,18.3-19.1,25.7c-4.7,4.8-9.5,9.4-14.5,13.9c-4.9,6.6-11.3,11.9-18.7,15.5
		c-8.2,6.3-16.7,12.2-25.4,17.7l-5.5,3.4c-4.9,3-10,6.2-14.9,9.4c0.9-0.1,1.7-0.2,2.6-0.2c22.5-1,43.1,12.6,50.9,33.7l-32.3,26.3
		l35.6-8.2c0,28.6-23.2,51.7-51.8,51.7c-7.7,0-15.4-1.8-22.3-5.1c0.8,1,1.6,2,2.4,3c1.6,2,3.2,3.9,4.7,5.9
		c21,26.6,26.9,52,16.5,71.2l-12.7-6.8c10.1-18.8-5.1-42.8-15.1-55.4c-1.5-1.9-3.1-3.9-4.6-5.8c-13.4-16.7-28.7-35.6-28.3-58.8
		C630.3,370.7,664.3,349.6,691.6,332.7z"/>
	<ellipse class="st1" cx="450" cy="555.2" rx="398.6" ry="21.3"/>
	<ellipse class="st2" cx="449.2" cy="548.6" rx="356.7" ry="17.1"/>
	<path class="st1" d="M788.9,134.3v409.9c0,3.1-2.5,5.6-5.6,5.6c0,0,0,0,0,0H116.7c-3.1,0-5.6-2.5-5.6-5.6c0,0,0,0,0,0V134.3
		c0-3.1,2.5-5.6,5.6-5.6c0,0,0,0,0,0h666.6C786.4,128.7,788.9,131.2,788.9,134.3C788.9,134.3,788.9,134.3,788.9,134.3z"/>
	<path class="st3" d="M788.9,132.4V145H111.1v-12.6c0-2.1,1.7-3.7,3.7-3.7h670.3C787.2,128.7,788.9,130.4,788.9,132.4
		C788.9,132.4,788.9,132.4,788.9,132.4z"/>
	<circle class="st4" cx="123.5" cy="136.4" r="3.9"/>
	<circle class="st4" cx="134.4" cy="136.4" r="3.9"/>
	<circle class="st4" cx="145.2" cy="136.4" r="3.9"/>
	<rect x="346.9" y="185.7" class="st5" width="206.3" height="10.9"/>
	<rect x="175.5" y="295.8" class="st5" width="159" height="186.1"/>
	<rect x="370.1" y="295.8" class="st5" width="159" height="186.1"/>
	<rect x="564.8" y="295.8" class="st5" width="159" height="186.1"/>
	<path class="st6" d="M247.9,390.4c-0.5,2.8-3.2,4.6-5.9,5.7s-5.5,2-7.2,4.3c-2.3,3.1-1.3,7.5,0.8,10.8c2.4,3.7,5.9,6.4,9.5,9
		c1.5,1.3,3.3,2.3,5.1,3c1.4,0.4,2.9,0.5,4.4,0.5c4.7,0,9.4-0.4,14.1-1.3c6-1.1,12.3-3.3,15.5-8.4c2.6-4.2,2.4-9.5,2.2-14.5
		c-2.8-0.2-5.3-1.8-7.7-3.2c-2.8-1.8-5.9-3.8-6.8-7c-1-3.3,0.6-7.5-1.7-10.1c-1.6-1.8-4.2-2-6.5-2c-3.2-0.1-6.4-0.1-9.5-0.1
		c-2.2,0-7.1-0.9-8.9,0.5C241.8,380.1,248.5,386.8,247.9,390.4z"/>
	<path class="st7" d="M247.9,390.4c-0.5,2.8-3.2,4.6-5.9,5.7s-5.5,2-7.2,4.3c-2.3,3.1-1.3,7.5,0.8,10.8c2.4,3.7,5.9,6.4,9.5,9
		c1.5,1.3,3.3,2.3,5.1,3c1.4,0.4,2.9,0.5,4.4,0.5c4.7,0,9.4-0.4,14.1-1.3c6-1.1,12.3-3.3,15.5-8.4c2.6-4.2,2.4-9.5,2.2-14.5
		c-2.8-0.2-5.3-1.8-7.7-3.2c-2.8-1.8-5.9-3.8-6.8-7c-1-3.3,0.6-7.5-1.7-10.1c-1.6-1.8-4.2-2-6.5-2c-3.2-0.1-6.4-0.1-9.5-0.1
		c-2.2,0-7.1-0.9-8.9,0.5C241.8,380.1,248.5,386.8,247.9,390.4z"/>
	<circle class="st6" cx="258.7" cy="366.1" r="22.7"/>
	<path class="st0" d="M306.2,421.3c-0.1,1.4-0.6,2.7-1.3,3.9c-0.2,0.3-0.4,0.6-0.7,0.9c-1.3,1.4-3.1,2.3-4.8,3.3
		c-4.7,2.8-9.9,6.5-10.7,11.9c-0.3,1.7-0.7,3.3-1.2,5c-1.1,3.7-2.5,7.3-3.3,11c-0.5,2.1-0.7,4.3-0.7,6.5c0,0.7,0.1,1.4,0.2,2.1
		c0.7,5.2,3.4,9.9,6.6,14.4c0.3,0.5,0.7,1,1,1.4l0.2,0.3h-74.2c0.1-0.5,0.2-0.9,0.4-1.4c0-0.1,0-0.1,0.1-0.2c0.7-3,1.4-5.9,1.8-8.9
		c0.4-2.7,0.7-5.3,0.7-8c0-2.3,0.5-4.9,2.5-6.2c0.1-0.5,0.3-1,0.4-1.4c1.7-7,1.7-14.4-0.1-21.4c-0.1-0.4-0.2-0.9-0.3-1.3
		c-0.1-0.2-0.1-0.4-0.2-0.6c-0.7-2.1-1.2-4.2-1.6-6.3c-0.5-2.5-0.6-5.2-1.9-7.4c-1.3-2.2-3.7-3.5-5.8-4.9c-1-0.7-1.9-1.5-2.7-2.5
		l0,0c-0.9-1-1.4-2.3-1.5-3.6c0-0.4,0-0.8,0.1-1.2c0.4-1.6,1.2-3.1,2.4-4.2c4.7-5.2,11.9-7.4,19-7.5l0,0c1.1,0,2.2,0,3.3,0.1
		c1.3,0,2.5,0.3,3.7,0.8c0.7,0.4,1.3,0.9,1.8,1.5c0.7,0.9,1.2,1.9,1.6,2.9c0.3,0.9,0.5,1.7,0.6,2.6c0.4,2.8,0.5,5.7,2,8.1
		c2.6,4.3,8.7,5.1,13.6,4.2c9-1.8,16.7-7.5,21.1-15.5c0.5-1,1-1.9,1.6-2.8c0.3-0.5,0.7-0.9,1.1-1.2c6.9,1.3,13.4,4.2,18.9,8.5
		c1.7,1.3,3.2,2.9,4.5,4.7C306.4,412.4,306.9,417,306.2,421.3z"/>
	<path class="st6" d="M308.6,468.1c-0.6,2.2-1.6,4.2-2.8,6.1c-0.8,1.6-1.9,3-3.3,4.2c-2.8,2.2-6.6,2.1-10.1,1.9h-0.3l-1.7-0.1
		l-10-0.6c-2.7-0.1-5.3-0.4-7.9-0.8c-0.7-0.1-1.4-0.3-2.1-0.5c-3.9-1-7.7-2.6-11.7-2.8c-1.2-0.1-2.3,0-3.5,0h-0.3
		c-0.8,0-1.6-0.1-2.3-0.2c-1.3-0.2-2.5-0.6-3.8-0.7c-3.3-0.2-6.3,1.8-9.1,3.6l-0.8,0.5c-2,1.3-4.2,2.4-6.4,3.2h-13.4
		c-0.2-0.2-0.4-0.4-0.6-0.6c-0.2-0.3-0.4-0.5-0.6-0.8c0-0.1-0.1-0.1-0.1-0.2c-0.9-1.9-0.9-4.1,0-6c0.5-1.1,1.2-2.1,2-2.9
		c0.9-1,1.8-1.8,2.8-2.7c5.2-4.4,11.2-8,17.9-9.3c0.5-0.1,0.9-0.2,1.4-0.2c3.3-0.4,6.7-0.5,10.1-0.3l3.2,0.1l13.2,0.3h0.4
		c5.3,0.1,10.9,0.1,15.7-2c0.6-0.3,1.2-0.6,1.8-0.9c0.5-0.2,0.9-0.6,1.2-1.1c0.3-0.6,0.4-1.3,0.4-2l0-7l-0.1-13.5l0,0
		c0-3.3,0-6.6-0.1-9.9c-0.3-2.1,0.4-4.1,1.9-5.6c1.9-2.4,6.6-11,10-11.1c0.6,0,1.2,0.1,1.7,0.5l0,0c2.8,1.9,2.9,9.1,2.9,11.5
		c0.1,2.7,0.2,5.3,0.3,8c0.6,10.9,1.9,21.8,3.9,32.6C308.7,461.7,309.3,465,308.6,468.1z"/>
	<path class="st7" d="M308.6,468.1c-0.6,2.2-1.6,4.2-2.8,6.1c-0.8,1.6-1.9,3-3.3,4.2c-2.8,2.2-6.6,2.1-10.1,1.9h-0.3l-1.7-0.1
		l-10-0.6c-2.7-0.1-5.3-0.4-7.9-0.8c-0.7-0.1-1.4-0.3-2.1-0.5c-3.9-1-7.7-2.6-11.7-2.8c-1.2-0.1-2.3,0-3.5,0h-0.3
		c-0.8,0-1.6-0.1-2.3-0.2c-1.3-0.2-2.5-0.6-3.8-0.7c-3.3-0.2-6.3,1.8-9.1,3.6l-0.8,0.5c-2,1.3-4.2,2.4-6.4,3.2h-13.4
		c-0.2-0.2-0.4-0.4-0.6-0.6c-0.2-0.3-0.4-0.5-0.6-0.8c0-0.1-0.1-0.1-0.1-0.2c-0.9-1.9-0.9-4.1,0-6c0.5-1.1,1.2-2.1,2-2.9
		c0.9-1,1.8-1.8,2.8-2.7c5.2-4.4,11.2-8,17.9-9.3c0.5-0.1,0.9-0.2,1.4-0.2c3.3-0.4,6.7-0.5,10.1-0.3l3.2,0.1l13.2,0.3h0.4
		c5.3,0.1,10.9,0.1,15.7-2c0.6-0.3,1.2-0.6,1.8-0.9c0.5-0.2,0.9-0.6,1.2-1.1c0.3-0.6,0.4-1.3,0.4-2l0-7l-0.1-13.5l0,0
		c0-3.3,0-6.6-0.1-9.9c-0.3-2.1,0.4-4.1,1.9-5.6c1.9-2.4,6.6-11,10-11.1c0.6,0,1.2,0.1,1.7,0.5l0,0c2.8,1.9,2.9,9.1,2.9,11.5
		c0.1,2.7,0.2,5.3,0.3,8c0.6,10.9,1.9,21.8,3.9,32.6C308.7,461.7,309.3,465,308.6,468.1z"/>
	<path class="st8" d="M243.7,330c-2,0.3-4.1,0.8-5.2,2.5c-0.8,1.3-0.8,3-1.1,4.5c-0.5,2.4-1.8,4.6-3.8,6.1c-1.6,1.2-3.6,1.9-5.3,3
		c-1.7,1.1-3.2,3-2.9,5c0.2,1.8,1.6,3.1,2.3,4.8c1.2,3-0.2,6.4-1.6,9.4s-2.6,6.5-1.1,9.4c1.6,3,5.8,4.2,7,7.4
		c1.5,3.9-2.3,8-1.8,12.1c0.4,3.4,3.8,5.8,7.2,6.3c1.6,0.2,3.4,0.1,4.7-1s1.6-2.8,1.7-4.5c0.2-6.3-3.4-12.1-4.4-18.3
		c-0.3-2.1-0.4-4.3,0.6-6.1c0.6-1.2,1.6-2.1,2.1-3.4c1-2.5-0.1-5.6,1-8.1c0.6-1.1,1.4-2.1,2.2-3.1c0.7-1,1.2-2.4,0.6-3.6
		c2,1.3,3.6,3.1,4.6,5.2c1.5-0.3,1.4-3.4,2.9-3c0.4,0.1,0.6,0.6,0.9,0.9c1.1,1.2,2.8,1.6,4.3,1.1c1.5-0.5,2.8-1.5,3.8-2.7l2.5,3
		c0.5-1.1,1.5-1.8,2.7-1.7c1.1,0.1,2.2,0.5,3.2,1.1c4.7,2.8,8.1,8.5,6.4,13.6c-0.8,2.2-2.3,4-3.4,6.1s-1.3,4.9,0.4,6.5
		c0.3,0.3,0.8,0.6,1.1,1c1.2,1.4,0.4,3.6,0.8,5.4c0.6,3.3,4.6,4.7,7.9,5.4c2.3,0.5,5.1,0.9,6.7-0.8c1.8-1.9,1-4.9-0.1-7.3
		s-2.3-5-1.2-7.3c1.2-2.3,4.5-3.1,5.8-5.5c1.6-3-1.2-6.4-2.3-9.6c-1.5-4.4,0.2-9.4-1.1-14c-0.7-2.3-1.9-4.4-3.4-6.3
		c-3.6-4.9-8-9.3-13.3-12.2c-5.1-2.7-10.2-3.1-15.8-2.4C253.8,329.6,248.8,329.2,243.7,330z"/>
	<path class="st0" d="M287.9,433.1c-0.5-0.3-0.8-0.7-0.9-1.2c-1.7-4.8-3.3-9.7-4.8-14.6c-0.3-0.9-0.5-1.8-0.4-2.7
		c0.4-1.2,1.1-2.2,2.1-2.8c2.5-2.1,5.4-3.8,8.5-5c2.2-0.9,5.5-2.4,7.8-1c2.8,1.8-0.2,6.2-1.2,8.5c-1.4,3.2-2.9,6.3-4.7,9.3
		C293.8,424.4,288.6,433.3,287.9,433.1z"/>
	<path class="st6" d="M292.3,480.3c-0.2,0.4-0.4,0.7-0.7,1c-0.1,0.1-0.2,0.2-0.3,0.3c-0.1,0.1-0.2,0.2-0.3,0.3h-13.5
		c-2.2-0.8-4.4-1.9-6.4-3.2l-0.8-0.5c-2.8-1.8-5.8-3.8-9.1-3.6c-1.3,0.1-2.5,0.5-3.8,0.7c-0.8,0.1-1.5,0.2-2.3,0.2h-0.3
		c-1.2,0-2.3-0.1-3.5,0c-4,0.2-7.8,1.8-11.7,2.8c-0.7,0.2-1.4,0.4-2.1,0.5c-2.6,0.5-5.3,0.7-7.9,0.8l-11.8,0.7h-0.3
		c-3.5,0.2-7.3,0.2-10.1-1.9c-1.3-1.2-2.5-2.6-3.3-4.2c-1.3-1.9-2.2-3.9-2.8-6.1c-0.8-3.1-0.1-6.3,0.4-9.5c2.4-13.4,3.8-27,4.2-40.6
		c0.1-2.4,0.1-9.6,2.9-11.5c0.3-0.2,0.7-0.4,1.1-0.4l0,0c0.2,0,0.4,0,0.6,0c3.3,0.1,8,8.7,10,11.1c1.5,1.5,2.2,3.6,1.9,5.6
		c0,3.2,0,6.4-0.1,9.6c0,0.1,0,0.3,0,0.4c0,6.8-0.1,13.6-0.1,20.4c-0.1,0.7,0.1,1.4,0.4,2c0.1,0.2,0.2,0.3,0.4,0.5
		c0.3,0.2,0.5,0.4,0.8,0.6c5.2,3,11.5,3,17.5,2.9h0.4l13.2-0.3l3.2-0.1c3.4-0.2,6.7-0.1,10.1,0.3c0.5,0.1,0.9,0.1,1.4,0.2
		c5.1,1.1,10,3.3,14.2,6.4c1.3,0.9,2.5,1.9,3.8,2.9c1.9,1.6,3.8,3.4,4.8,5.6C293.2,476.2,293.2,478.4,292.3,480.3z"/>
	<path class="st0" d="M222.8,433.1c0.5-0.3,0.8-0.7,0.9-1.2c1.7-4.8,3.3-9.7,4.8-14.6c0.3-0.9,0.5-1.8,0.4-2.7
		c-0.4-1.2-1.1-2.2-2.1-2.8c-2.5-2.1-5.4-3.8-8.5-5c-2.2-0.9-5.5-2.4-7.8-1c-2.8,1.8,0.2,6.2,1.2,8.5c1.4,3.2,2.9,6.3,4.7,9.3
		C217,424.4,222.1,433.3,222.8,433.1z"/>
	<path class="st8" d="M642.4,345c4.6-1.1,8.2,6.5,12.8,5.6c2.6-0.5,4.5-3.5,7.1-3.3c2.9,0.3,4.2,4.3,5.7,7.2c2.6,5.1,7.9,8.2,13,7.6
		c1.6-2.1,1.3-5.4,0.5-8c-0.8-2.6-2.1-5.2-2.1-8c0-3.7,2-7.8,0.2-10.9c-1.4-2.3-4.3-2.5-6.5-3.9c-1.7-1.1-2.8-3-4.2-4.5
		c-2.2-2.5-5.3-4.1-8.6-4.5c-2.7-0.3-5.5,0.3-8.2,0.9l-12.7,2.7c-0.7,0.1-1.4,0.4-2,0.9c-0.5,0.8-0.9,1.7-1,2.6c-1.2,3.9-5,5.8-8,8
		c-3.1,2.2-6,6.5-4.3,10.2c1,2.1,3.2,3.4,3.5,5.7c0.2,2.1-1.3,3.8-2.5,5.4c-5.2,6.6,6.5,10,9.3,5.5
		C637.4,359.3,635.8,346.6,642.4,345z"/>
	<path class="st6" d="M635.7,386.3c-1.1,1.4-2.5,2.6-3.4,4.2c-1.1,2.3-1.3,4.9-0.5,7.3c0.8,2.4,1.9,4.6,3.3,6.7
		c1.6,2.8,3.6,5.4,5.8,7.8c2.3,2.4,5.3,3.9,8.5,4.2c3.5,0.3,6.8-1.2,9.9-2.7c1.3-0.5,2.5-1.3,3.6-2.3c0.7-1,1.3-2,1.7-3.2l2.7-6.4
		c0.8-1.6,1.3-3.2,1.6-4.9c0.3-2.7-0.7-5.3-1.6-7.9l-4.9-13.5c-0.2-0.8-0.6-1.5-1.2-2.1c-0.5-0.4-1.2-0.7-1.8-0.8
		c-3.1-0.8-6.3-1.3-9.5-1.6c-2.4-0.2-7.8-1-9.9,0.3c-1.9,1.2-1.1,4.4-1.3,6.5C638.5,380.9,637.4,383.8,635.7,386.3z"/>
	<path class="st7" d="M635.7,386.3c-1.1,1.4-2.5,2.6-3.4,4.2c-1.1,2.3-1.3,4.9-0.5,7.3c0.8,2.4,1.9,4.6,3.3,6.7
		c1.6,2.8,3.6,5.4,5.8,7.8c2.3,2.4,5.3,3.9,8.5,4.2c3.5,0.3,6.8-1.2,9.9-2.7c1.3-0.5,2.5-1.3,3.6-2.3c0.7-1,1.3-2,1.7-3.2l2.7-6.4
		c0.8-1.6,1.3-3.2,1.6-4.9c0.3-2.7-0.7-5.3-1.6-7.9l-4.9-13.5c-0.2-0.8-0.6-1.5-1.2-2.1c-0.5-0.4-1.2-0.7-1.8-0.8
		c-3.1-0.8-6.3-1.3-9.5-1.6c-2.4-0.2-7.8-1-9.9,0.3c-1.9,1.2-1.1,4.4-1.3,6.5C638.5,380.9,637.4,383.8,635.7,386.3z"/>
	<circle class="st6" cx="651.8" cy="361.6" r="21.5"/>
	<path class="st8" d="M699.4,415.3c0,5.9-2.2,11.6-4.6,17.1s-5.3,10.8-7.6,16.4c-0.2,0.4-0.4,0.9-0.5,1.4
		c-3.9,10.2-7.4,20.6-10.5,31.1l-0.2,0.8h-66.6c3-11.6,5.6-23.3-1.6-31.3c-0.2-0.2-0.4-0.5-0.7-0.8c-4.8-5.7-6.9-13.6-12.6-18.5
		c-1.3-1.1-2.8-2.1-3.6-3.6c-0.5-0.9-0.7-2-0.7-3c0-0.9,0.1-1.8,0.2-2.8c0.6-5,1.3-10.3,4.3-14.4c1.4-1.8,3.1-3.3,4.9-4.6
		c4.1-2.9,8.8-5,13.7-6.1c5.6-1.3,11.7-1.5,16.2-4.9c1-0.9,2-1.7,3.1-2.3l0.3-0.1c1.1-0.5,2.4-0.4,3.3,0.4c0.6,0.7,1,1.5,1.1,2.3
		c0.8,3,1.6,6,2.5,9c0.3,1.5,0.9,2.9,1.9,4.1c2.2,2.3,6.4,2,8.1,4.7c1,1.6,3.7-0.3,4.9-1.8c2.8-3.6,5.3-7.5,7.3-11.6
		c0.7-1.6,1.6-3.2,2.7-4.5c0.8-0.9,1.8-1.5,3-1.8c0.6-0.1,1.2-0.2,1.7,0c1.7,0.3,2.9,1.7,4,3c6.8,7.6,14.9,14,23.8,19
		c0.7,0.3,1.3,0.8,1.7,1.4c0.2,0.4,0.3,0.8,0.3,1.2C699.4,415,699.4,415.1,699.4,415.3z"/>
	<path class="st8" d="M644.7,343.9c3.6-0.8,6.4,4.4,10,3.8c2-0.3,3.5-2.3,5.5-2.2c2.3,0.2,3.3,2.9,4.4,4.8c2.1,3.5,6,5.4,10.1,5.1
		c1.2-1.4,1-3.6,0.4-5.4c-0.6-1.8-1.6-3.5-1.6-5.4c0-2.5,1.6-5.3,0.1-7.3c-1.1-1.6-3.4-1.7-5-2.7c-1.3-0.8-2.2-2-3.3-3
		c-1.8-1.7-4.2-2.8-6.7-3c-2.1-0.1-4.3,0.1-6.4,0.6l-9.9,1.8c-0.6,0-1.1,0.3-1.6,0.6c-0.4,0.5-0.7,1.1-0.8,1.7
		c-0.9,2.7-3.9,3.9-6.3,5.4s-4.7,4.4-3.4,6.9c0.8,1.4,2.5,2.3,2.7,3.9c0.2,1.4-1,2.6-2,3.6c-4.1,4.4,5.1,6.7,7.3,3.7
		C640.8,353.5,639.6,345,644.7,343.9z"/>
	<path class="st8" d="M709.5,481.9h-18.1c0.3-7.4-2.7-15-3.1-22.6c-0.1-2.8,0.1-5.7-0.5-8.5c-0.2-0.7-0.3-1.4-0.6-2.1
		c-0.5-1.4-1-2.8-1.5-4.3c-1.4-4.8-1.4-9.9-1.3-15c0.1-5.5,0.2-11.1,0.3-16.6c0-1.4-0.4-3.6,0.9-4.2c3-1.4,6,1.3,8.7,3.1
		c1.6,1.1,3.5,1.9,5.1,3.1c0.9,0.6,1.8,1.5,2.4,2.4c0.8,1.3,1.3,2.7,1.6,4.2c2.2,8.4,4.1,16.9,5.7,25.4c0.8,3.7,1.3,7.5,1.6,11.2
		C711.2,466,709.5,474,709.5,481.9z"/>
	<path class="st8" d="M596.8,473.3c-0.8,1.9-1.6,3.9-1.5,5.9c0.1,0.9,0.3,1.8,0.6,2.7h-16.4c-0.8-2.8-1.4-5.6-1.9-8.5
		c-0.8-5.6-0.3-11.3,0.4-17c0.5-4.4,1.4-8.7,2.8-12.8c1.9-5.3,4.9-10.2,7.5-15.2c0.6-1.2,1.2-2.5,1.8-3.7c1.4-2.6,3.2-4.4,6.7-2.7
		c8.8,4.3,12.6,19.2,10.2,27.9c0,0,0,0,0,0.1c-0.7,2.2-1.6,4.3-2.6,6.4C601.8,461.9,599.2,467.6,596.8,473.3z"/>
	<path class="st1" d="M452.9,334.2c1.8,0.6,3.2,1.9,4.1,3.5c0.7,1.5,0.7,3.2,1.2,4.7c1,3.3,4.1,5.4,6,8.3c2.6,3.9,2.9,8.8,2.7,13.5
		c-0.2,4.7-0.8,9.4,0.4,13.9c0.6,2.2,1.5,4.3,1.9,6.5c0.5,2.7,0.1,5.6,0.8,8.2c0.6,2.4,2,4.6,3.5,6.6l6,8.8c-2.7-0.6-5.4-1.4-8-2.4
		c0.8,2.5,2.3,4.8,4.3,6.5l-4.4-5.3c-0.9-1.2-2-2.3-3.2-3.1c-1.6-0.9-3.5-1-5.3-1.4c-3.5-0.7-6.9-2.5-8.6-5.6
		c-2.3-4.1-0.8-9.3-2.1-13.9c-0.9-3.3-3.2-6.1-4.8-9.1c-3.6-6.9-3.3-15.1-4.5-22.8c-0.5-3.3-1.2-6.5-1.2-9.8c0-2.4,0.2-7.1,2.8-8.3
		C446.7,332,450.8,333.3,452.9,334.2z"/>
	<path class="st9" d="M455.5,389.6c0.4,4,1.2,8.8,4.9,10.5c2.1,1,4.5,0.6,6.8,1c4.3,0.7,7.8,4,9.8,7.8s2.7,8.2,3.1,12.5
		c0.6,5.4,0.8,11.2-2.2,15.8c-2.4,3.7-6.5,5.9-10.8,7.1c-8.6,2.3-17.8,0.5-25.1-4.7c-3.5-2.6-6.4-5.8-9.2-9.1
		c-6.1-7.2-12.3-15-13.6-24.4c-0.1-1.1-0.1-2.3,0.8-3c0.6-0.3,1.3-0.5,2-0.4l5.9,0.1c1.5,0,3.2,0,4.2-1.1c1-1.1,1-2.5,0.9-3.9
		c-0.1-5.7-0.3-11.4-0.4-17.1c-0.1-0.6,0-1.2,0.4-1.7c0.4-0.3,0.9-0.5,1.4-0.6c3.2-0.6,6.6,0,9.8-0.9c3-0.8,7.8-4.3,10-0.7
		C455.9,379.9,455.2,386.2,455.5,389.6z"/>
	<path class="st7" d="M455.5,389.6c0.4,4,1.2,8.8,4.9,10.5c2.1,1,4.5,0.6,6.8,1c4.3,0.7,7.8,4,9.8,7.8s2.7,8.2,3.1,12.5
		c0.6,5.4,0.8,11.2-2.2,15.8c-2.4,3.7-6.5,5.9-10.8,7.1c-8.6,2.3-17.8,0.5-25.1-4.7c-3.5-2.6-6.4-5.8-9.2-9.1
		c-6.1-7.2-12.3-15-13.6-24.4c-0.1-1.1-0.1-2.3,0.8-3c0.6-0.3,1.3-0.5,2-0.4l5.9,0.1c1.5,0,3.2,0,4.2-1.1c1-1.1,1-2.5,0.9-3.9
		c-0.1-5.7-0.3-11.4-0.4-17.1c-0.1-0.6,0-1.2,0.4-1.7c0.4-0.3,0.9-0.5,1.4-0.6c3.2-0.6,6.6,0,9.8-0.9c3-0.8,7.8-4.3,10-0.7
		C455.9,379.9,455.2,386.2,455.5,389.6z"/>
	<circle class="st9" cx="440.7" cy="366" r="22.5"/>
	<path class="st4" d="M490.8,462.5c-0.2,0.9-0.4,1.8-0.6,2.7c-0.7,2.1-1.5,4.1-2.5,6.1c-0.4,0.8-0.7,1.7-1,2.5
		c-0.2,0.7-0.4,1.3-0.6,2c-0.2,0.7-0.4,1.6-0.5,2.4c-0.2,1.2-0.4,2.4-0.5,3.6h-58.8c0.3-3,0.1-6-0.3-8.9c-0.8-4.1-2-8-3.6-11.8
		c-3.7-9.6-7.9-19.4-10.2-29.4c0,0,0,0,0,0c-1.6-6.5-2.1-13.2-1.4-19.9c0-0.4,0.1-0.8,0.2-1.2c0.1-1,0.3-2,0.6-3
		c0.6-2.8,1.9-5.4,3.7-7.6c2.6-2.8,7.1-4.2,10.5-2.4c2.1,1.1,3.3,3,4.4,5.2c0.7,1.4,1.2,2.8,1.8,4.2c2.1,5,5.1,9.5,8.9,13.3
		c0.7,0.8,1.5,1.5,2.3,2.1c0.8,0.7,1.5,1.3,2.2,1.8c2.5,1.9,5.5,4.3,8.7,4.4c1.9,0.1,3.8,0,5.8,0c1.7,0,3.4-0.1,5.1,0
		c3.6,0.1,7.8-1,9.5-4.1c1.2-2.2,1-4.8,0.8-7.3c-0.2-1.9-0.4-3.9-0.5-5.8c0-0.1,0-0.2,0-0.3c-0.1-1.4-0.3-2.8-0.4-4.2l0,0
		c-0.1-0.7-0.1-1.4-0.2-2l0,0l-0.1-1.5c0.6-0.1,1.3-0.1,2-0.2c2.9-0.2,5.9-0.2,8.5,1.3c2.4,1.4,3.9,3.7,4.8,6.3
		c0.6,1.9,1,3.8,1.2,5.8c0.9,8.8-0.5,17.7-0.1,26.5C490.6,449.5,492,456.2,490.8,462.5z"/>
	<path class="st9" d="M504.3,481.9h-17.8c-0.1-2-0.3-4-0.3-6.1c-0.1-1.4-0.1-2.8-0.1-4.2c-0.1-3.8,0-7.5,0.1-11.3
		c3.5,2,7.4,3.1,11.4,3.3c1.6,1.8,2.9,3.9,3.9,6.1c0.5,1.2,1,2.5,1.3,3.8c0,0,0,0,0,0.1C503.5,476.4,504,479.1,504.3,481.9z"/>
	<path class="st4" d="M502.7,469.8c-6.7,0.1-13.4,1-19.9,2.6c-0.9-4.2-0.4-8.6,0-13l2.9-29.6c0.2-2.2-0.2-22.3,4.1-18.8
		c1.6,1.3,3.5,13.1,4,15c0.7,2.9,1.3,5.8,1.8,8.7c1.1,6,1.8,12,2.8,17.9C498.7,454.4,501.2,469.8,502.7,469.8z"/>
	<path class="st1" d="M449.3,337.4c0-0.7-0.1-1.4-0.5-2c-0.6-0.7-1.5-1.2-2.4-1.3c-3.2-0.5-6.8,0.8-9.8-0.7
		c-1.6-0.8-2.7-2.3-4.3-3.2c-3.7-2.1-8.3,0-11.5,2.7c-5.2,4.3-8.9,10-10.8,16.5c-1.4,5-2,10.8-6.1,14c-1.7,1.3-3.9,2-5.2,3.8
		c-1,1.3-1.2,3-1.4,4.7c-0.4,3.8-0.8,7.7,0.2,11.3c0.8,2.7,2.2,5.2,3.1,7.9c2.5,7.8,0.3,16.3-5.7,21.9c1.5,0.9,3.3,1.3,5,0.9
		c0,0.8-0.3,1.6-0.7,2.2c5.3-0.2,9.9-5.3,15-4.2c3.9,0.9,6.1,4.9,9.1,7.7c3.8,3.6,9.7,5,14.4,2.9c4.8-2.1,7.6-8.1,5.6-12.9
		c-2.3-5.4-9.4-7.6-11.8-13c-1.9-4.2-0.5-9-0.9-13.6c-0.3-3.9-2-7.6-3.1-11.4c-1.1-3.8-1.4-8.1,0.8-11.4c2.3-3.5,6.6-4.9,10.6-6.2
		C447.9,350.9,449.6,346.4,449.3,337.4z"/>
	<path class="st9" d="M443.7,418.4c0.6-3.1,1.3-6.5,0.1-9.5c-2.1-5.6-9-7.3-13.8-10.9c-2.8-2.1-4.9-4.9-6.1-8.2
		c-0.9-2.3-1-5.4,1.1-6.6c0.8-0.4,1.7-0.5,2.7-0.5c7.4,0.2,14.2,4.2,19.9,9c3.3,2.8,6.5,6,8.1,10c1.2,2.8,1.6,5.9,1.9,9l1.2,10.1
		c0.8,5.8,1.2,11.6,1.3,17.4c0,3.3-0.2,6.7-0.6,10c-0.3,2.3-0.8,4.8-2.1,6.7c-2.6,3.6-7.5,4.4-11.9,4.5c-1.7,0.1-3.3,0-5-0.3
		c-7.3-1.6-12.9-11.9-7.4-18.2c2.3-2.7,5.9-2.8,7.3-6.5C442.2,429.4,442.7,423.5,443.7,418.4z"/>
	<path class="st4" d="M437.8,420.1l5.8,9.5c0.3,0.5,0.6,1,0.7,1.6c0.2,1.2-0.8,2.3-1.5,3.3c-5,6.8-3.7,16.2-2.2,24.5
		c-16.3-5.2-28.1-19.2-30.6-36c-0.7-5-1.9-13.1,2.5-16.3C423,398.9,432.8,412,437.8,420.1z"/>
	<path class="st1" d="M467.2,401.1c-2.3-0.4-4.7,0-6.8-1c-3.7-1.7-4.5-6.5-4.9-10.5c0-0.4-0.1-0.8-0.1-1.2c1.3-1.4,2.8-2.6,4.3-3.7
		c1.4-0.8,2.9-1.5,4.4-1.9l4.1-1.4c0.4,1.1,0.7,2.2,0.9,3.3c0.5,2.7,0.1,5.6,0.8,8.2c0.6,2.4,2,4.6,3.5,6.6l6,8.8
		c-1.1-0.3-2.2-0.6-3.3-0.9C474,404.3,470.9,401.7,467.2,401.1z"/>
	<path class="st10" d="M79.8,555.7c2.3-4.3-0.3-9.5-3.3-13.3c-3-3.8-6.7-7.8-6.6-12.6c0.1-7,7.5-11.1,13.4-14.8
		c4.4-2.7,8.4-6,12.1-9.7c1.5-1.4,2.8-3.1,3.7-5c1.2-2.7,1.2-5.8,1.1-8.8c-0.3-10-0.8-19.9-1.5-29.8"/>
	<path class="st4" d="M110,461.1c-0.2-3.7-2.2-7.1-5.4-8.9l-2.4,4.8l0.1-5.8c-1.2-0.3-2.4-0.5-3.6-0.4c-6,0.3-10.6,5.4-10.3,11.4
		c0.3,6,5.4,10.6,11.4,10.3C105.6,472.1,110.2,467.1,110,461.1L110,461.1z"/>
	<path class="st4" d="M90.6,534.8c-2.7,5.3-9.3,7.4-14.6,4.7s-7.4-9.3-4.7-14.6s9.3-7.4,14.6-4.7c2.4,1.2,4.3,3.3,5.2,5.9l-6.8,5.5
		l7.5-1.7C91.8,531.5,91.3,533.2,90.6,534.8z"/>
	<path class="st4" d="M85.2,513.6c-6,0.4-11.2-4.1-11.6-10.1c-0.4-5.2,3.1-10,8.1-11.3l-0.1,4.5l2.5-4.9l0,0
		c6-0.3,11.1,4.3,11.4,10.3c0,0,0,0.1,0,0.1c0.1,1.3-0.1,2.5-0.5,3.7C93.7,510.4,89.8,513.4,85.2,513.6z"/>
	<path class="st4" d="M111.6,496.1c-6,0.2-11-4.5-11.2-10.5c-0.2-6,4.5-11,10.5-11.2c2-0.1,3.9,0.4,5.6,1.3l-1.9,5.3l4-3.8
		c2.1,1.9,3.4,4.6,3.5,7.5c0.1,1,0,2-0.3,3C120.6,492.4,116.5,495.9,111.6,496.1z"/>
	<path class="st7" d="M108.5,464c-2.5,0.3-5,1.1-7.5,1.2c-2.5,0.2-5.3-0.4-6.9-2.4c-0.9-1.1-1.3-2.4-2-3.5c-0.7-1.1-1.6-2-2.7-2.6
		c-2.6,5.4-0.3,11.9,5.1,14.5c5.4,2.6,11.9,0.3,14.5-5.1c0.3-0.7,0.6-1.4,0.8-2.1C109.3,463.9,108.9,463.9,108.5,464z"/>
	<path class="st7" d="M111.6,496.1c-6,0.3-11.1-4.3-11.4-10.3c-0.1-1.8,0.3-3.6,1-5.2c0.9,0.6,1.6,1.3,2.2,2.2
		c0.8,1.2,1.2,2.5,2.2,3.6c1.7,2,4.6,2.6,7.2,2.5c2.6-0.1,5.2-0.9,7.8-1.1c0.4,0,0.7-0.1,1.1-0.1
		C120.6,492.4,116.4,495.9,111.6,496.1z"/>
	<path class="st7" d="M85.2,513.6c-6,0.3-11.1-4.3-11.4-10.3c-0.1-1.7,0.2-3.5,1-5c0.9,0.6,1.7,1.3,2.3,2.2c0.8,1.2,1.4,2.6,2.3,3.7
		c1.8,2,4.9,2.8,7.7,2.7c2.8-0.1,5.3-0.7,8-0.9C93.7,510.3,89.8,513.4,85.2,513.6z"/>
	<path class="st7" d="M90.6,534.8c-2.5,5.5-8.9,7.9-14.4,5.5s-7.9-8.9-5.5-14.4c0.9,0.6,1.7,1.3,2.4,2.1c1,1.3,1.7,2.7,2.9,3.9
		c2.2,2.2,5.8,3.1,9,3.2C86.9,535.1,88.7,535,90.6,534.8z"/>
	<path class="st11" d="M63.4,550.8c0,0,8.6-0.3,11.2-2.1c2.6-1.8,13.2-4,13.9-1.1s12.9,14.7,3.2,14.8c-9.7,0-22.5-1.5-25.1-3.1
		C63.9,557.7,63.4,550.8,63.4,550.8z"/>
	<path class="st2" d="M91.8,561.4c-9.7,0.1-22.5-1.6-25.1-3.1c-2-1.2-2.8-5.5-3-7.5h-0.3c0,0,0.5,6.9,3.1,8.5
		c2.6,1.6,15.4,3.2,25.1,3.1c2.8,0,3.8-1,3.7-2.5C94.9,560.8,93.9,561.3,91.8,561.4z"/>
	<path class="st10" d="M797.7,545.2c4.1-7.6-0.6-16.9-5.9-23.7c-5.4-6.8-11.9-13.8-11.7-22.5c0.2-12.4,13.4-19.8,23.9-26.3
		c7.8-4.9,15-10.7,21.5-17.3c2.6-2.6,5.1-5.4,6.6-8.8c2.2-4.9,2.1-10.4,2-15.7c-0.5-17.7-1.3-35.4-2.6-53.1"/>
	<path class="st4" d="M851.4,376.8c-0.3-6.6-3.9-12.6-9.7-15.9l-4.3,8.6l0.1-10.4c-10.3-3-21.1,2.8-24.1,13.1s2.8,21.1,13.1,24.1
		c10.3,3,21.1-2.8,24.1-13.1C851.2,381.2,851.5,379,851.4,376.8L851.4,376.8z"/>
	<path class="st4" d="M816.8,507.9c-4.9,9.5-16.6,13.3-26.1,8.4c-9.5-4.9-13.3-16.6-8.4-26.1c4.9-9.5,16.6-13.3,26.1-8.4
		c4.3,2.2,7.6,6,9.3,10.5l-12.1,9.8L819,499C819,502.1,818.3,505.1,816.8,507.9z"/>
	<path class="st4" d="M807.3,470.3c-10.7,0.4-19.7-7.9-20.1-18.6c-0.4-8.9,5.4-16.9,14-19.4l-0.1,8l4.4-8.7h0.1
		c10.7-1,20.1,6.7,21.2,17.4s-6.7,20.1-17.4,21.2C808.6,470.2,808,470.3,807.3,470.3L807.3,470.3z"/>
	<path class="st4" d="M854.3,439c-10.7,0.6-19.8-7.6-20.4-18.3c-0.6-10.7,7.6-19.8,18.3-20.4c3.7-0.2,7.4,0.7,10.6,2.5l-3.4,9.4
		l7-6.8c3.8,3.4,6,8.3,6.3,13.4c0.1,1.8-0.1,3.6-0.5,5.3C870.2,432.5,862.9,438.6,854.3,439z"/>
	<path class="st7" d="M848.8,382c-4.5,0.5-8.8,1.9-13.3,2.2c-4.5,0.3-9.4-0.8-12.2-4.3c-1.6-1.9-2.3-4.2-3.6-6.3
		c-1.2-1.9-2.9-3.5-4.9-4.6c-4.9,9.5-1.2,21.2,8.3,26.1c9.5,4.9,21.2,1.2,26.1-8.3c0.8-1.6,1.4-3.3,1.8-5
		C850.2,381.9,849.5,381.9,848.8,382z"/>
	<path class="st7" d="M854.3,439c-10.7,0.5-19.8-7.8-20.2-18.5c-0.1-3.1,0.5-6.3,1.8-9.1c1.5,1,2.8,2.3,3.9,3.9
		c1.4,2.1,2.2,4.5,3.9,6.4c3,3.6,8.2,4.7,12.8,4.5c4.7-0.2,9.2-1.6,13.8-2c0.6-0.1,1.3-0.1,1.9-0.1
		C870.3,432.5,862.9,438.6,854.3,439z"/>
	<path class="st7" d="M807.3,470.3c-10.7,0.5-19.8-7.8-20.3-18.5c-0.1-3,0.4-6,1.7-8.8c1.6,1.1,3,2.4,4.1,3.9
		c1.5,2.1,2.4,4.6,4.2,6.5c3.3,3.6,8.8,4.9,13.7,4.8c4.8-0.1,9.4-1.3,14.2-1.7C822.5,464.4,815.5,469.9,807.3,470.3z"/>
	<path class="st7" d="M816.8,507.9c-5.1,9.4-16.8,13-26.3,7.9c-8.5-4.6-12.3-14.7-9-23.7c1.6,1,3,2.3,4.2,3.8
		c1.8,2.2,3.1,4.8,5.2,6.9c4,3.9,10.4,5.5,16,5.6C810.3,508.4,813.6,508.2,816.8,507.9z"/>
	<path class="st11" d="M768.5,536.4c0,0,15.3-0.5,19.9-3.8s23.5-7.2,24.7-1.9s23,26.2,5.7,26.3c-17.3,0.1-40.1-2.7-44.7-5.5
		C769.5,548.7,768.5,536.4,768.5,536.4z"/>
	<path class="st2" d="M819,555.2c-17.3,0.1-40.1-2.7-44.7-5.5c-3.5-2.1-4.9-9.8-5.4-13.3h-0.5c0,0,1,12.3,5.6,15.1
		s27.4,5.6,44.7,5.5c5,0,6.7-1.8,6.6-4.4C824.7,554.2,822.8,555.2,819,555.2z"/>
</g>
</svg>
