<?xml version="1.0" encoding="utf-8"?>
<!-- Generator: Adobe Illustrator 24.2.0, SVG Export Plug-In . SVG Version: 6.00 Build 0)  -->
<svg version="1.1" id="ad1dbded-e6d6-4106-9f5c-9042f8f56d9b"
	 xmlns="http://www.w3.org/2000/svg" xmlns:xlink="http://www.w3.org/1999/xlink" x="0px" y="0px" viewBox="0 0 884.7 576.5"
	 style="enable-background:new 0 0 884.7 576.5;" xml:space="preserve">
<style type="text/css">
	.st0{fill:#E6E6E6;}
	.st1{fill:#FFFFFF;}
	.st2{fill:#E79798;}
	.st3{fill:#2F2E41;}
	.st4{fill:#FBBEBE;}
	.st5{fill:#FFB8B8;}
	.st6{opacity:0.2;enable-background:new    ;}
</style>
<ellipse class="st0" cx="763.6" cy="564.5" rx="121.1" ry="12"/>
<ellipse class="st0" cx="75" cy="559" rx="43.4" ry="6"/>
<rect class="st0" width="567.6" height="284.8"/>
<rect x="26.1" y="23.2" class="st1" width="515.4" height="238.4"/>
<polygon class="st2" points="26.7,262.3 25.4,260.9 94.6,191.7 116.3,213.4 154.4,175.3 201.3,222.1 280.9,142.5 317.1,178.7 
	396.2,99.5 440.6,143.9 522,62.5 523.4,63.9 440.6,146.6 396.2,102.2 317.1,181.4 280.9,145.2 201.3,224.8 154.4,178 116.3,216.1 
	94.6,194.4 "/>
<circle class="st2" cx="396.7" cy="102.3" r="11.6"/>
<circle class="st2" cx="155.4" cy="177.6" r="11.6"/>
<circle class="st2" cx="317.6" cy="178.6" r="11.6"/>
<circle class="st2" cx="204.6" cy="222" r="11.6"/>
<circle class="st2" cx="279" cy="145.8" r="11.6"/>
<circle class="st2" cx="440.2" cy="145.8" r="11.6"/>
<path class="st0" d="M61.4,529.5c4.7,17.4,20.8,28.1,20.8,28.1s8.5-17.4,3.8-34.8c-4.7-17.4-20.8-28.1-20.8-28.1
	S56.7,512.1,61.4,529.5z"/>
<path class="st2" d="M68.3,525.8c12.9,12.6,14.5,31.9,14.5,31.9s-19.3-1.1-32.2-13.6C37.6,531.5,36,512.2,36,512.2
	S55.4,513.2,68.3,525.8z"/>
<path class="st3" d="M723,134.2l7.4,73.1h60.8l-2.9-111c0-23.9-16.5-44.8-40.4-44.8s-39.4,19.9-39.4,43.8l-3.9,112h9.9L723,134.2z"
	/>
<path class="st4" d="M759.3,517.3c0,0-2.6,16.6-7,19.2s22.7,8.7,22.7,8.7l4.4-26.2L759.3,517.3z"/>
<path class="st3" d="M791.7,327.5l9.6,11.4l-4.4,39.4l-3.5,77.8c0,0,7,67.3,0,69.1s-38.5,0.9-37.6-3.5s1.7-7.9,3.5-14
	c1.7-6.1-1.7-28-1.7-28l4.4-24.5l-15.7-105.8L791.7,327.5z"/>
<path class="st3" d="M760.2,533.9c0,0-9.6-1.7-10.5,0c-0.9,1.7-17.5,20.1-20.1,20.1s-21.9,17.5-1.7,18.4
	c20.1,0.9,53.4-14.9,53.4-14.9s-4.9-22.3-4.6-21.2S760.2,538.3,760.2,533.9z"/>
<path class="st4" d="M749.7,493.7c0,0,24.5,27.1,25.4,29.7s14,0,14,0l5.2-17.5l-4.4-6.1l-24.5-20.1L749.7,493.7z"/>
<path class="st3" d="M784.7,513.8L772,525.7c0,0,16.2,24.8,16.2,27.4c0,2.6,0.9,24.5,9.6,21s9.6-38.5,9.6-38.5s-0.9-35.9-6.1-38.5
	s-16.8-1.8-16.8-1.8S791.7,512.9,784.7,513.8z"/>
<path class="st3" d="M712.1,249.6c0,0-4.4,14-5.2,17.5s-6.1,13.1-6.1,28s1.7,32.4,0,34.1s-29.7,99.7-17.5,110.2s52.5,45.5,55.1,49.9
	s3.5,14.9,8.7,13.1s25.4-19.2,26.2-22.7s-11.4-9.6-11.4-9.6s-24.5-35.9-30.6-35s-5.2-4.4-4.4-7s2.6-4.4,0-4.4s-0.9-7,0-10.5
	s21-50.7,21-50.7l53.4-23.6c0,0-2.6-63.9-21.9-81.3l-4.4-10.5C775.1,247,726.1,243.5,712.1,249.6z"/>
<path class="st5" d="M734,111.4c0,0,4.4,30.6-6.1,32.4s-19.2,0.9-19.2,1.7s26.2,28,26.2,28l24.5-1.7l21.9-23.6
	c0,0-20.1-3.5-20.1-15.7s-0.9-21-0.9-21L734,111.4z"/>
<circle class="st5" cx="747.5" cy="97" r="27.1"/>
<path class="st0" d="M731.7,141.6c0,0-42.3,4-45,15.3s17.5,82.2,20.1,88.3s1.7,10.5,1.7,10.5c8-6,18.2-8.2,28-6.1
	c16.6,3.5,40.2,1.7,40.2,1.7s7.9-32.4,9.6-35.9s8.7-22.7,8.7-28s10.5-27.1,10.5-27.1s-5.2-15.7-24.5-14.9c0,0-8.4-3.8-10.8-1
	s-15.5,15-32.1,9.8S731.7,141.6,731.7,141.6z"/>
<path class="st0" d="M789.1,156l16.6,4.4c0,0,12.2,44.6,13.1,45.5s1.7,6.1,1.7,6.1s0,0.9,1.7,3.5s4.4,0.9,2.6,4.4s-4.4,1.7-2.6,5.2
	s0.9,13.1,0.9,13.1s-4.4-16.6-20.1-12.2l-10.5-47.2L789.1,156z"/>
<polygon class="st2" points="794.6,164.4 794.5,164.6 765.7,255.4 746.8,251.2 726.3,246.6 755.2,153 "/>
<path class="st0" d="M703.6,156l-16.6,4.4c0,0-12.2,44.6-13.1,45.5s-1.7,6.1-1.7,6.1s0,0.9-1.7,3.5s-4.4,0.9-2.6,4.4
	s4.4,1.7,2.6,5.2s-0.9,13.1-0.9,13.1s4.4-16.6,20.1-12.2l10.5-47.2L703.6,156z"/>
<path class="st5" d="M674.8,223.4l-5.5,9.1c0,0-2.4,17.1,9.8,17.1s29.7-16.6,29.7-16.6s8.7-3.5,14-2.6s34.1,0,21.9-14.9
	s-33.2,0-33.2,0L689.7,226l-11.4-6.1L674.8,223.4z"/>
<path class="st0" d="M682.2,211.6l8.7,14c0,0-20.1,2.6-21.9,7s7.9-22.7,7.9-22.7L682.2,211.6z"/>
<path class="st3" d="M724.9,87.4c17.6-9.5,24.8-9.1,46.8,0l5.8-14.2c0-5.6-4.5-10.1-10.1-10.1h-39.2c-5.6,0-10.1,4.5-10.1,10.1
	L724.9,87.4z"/>
<polygon class="st6" points="794.5,164.6 765.7,255.4 746.8,251.2 775.2,159 "/>
<polygon class="st2" points="781.2,159 752.3,252.6 791.7,261.4 820.5,170.4 "/>
<path class="st5" d="M817.9,223.4l5.5,9.1c0,0,2.4,17.1-9.8,17.1S783.8,233,783.8,233s-8.7-3.5-14-2.6s-34.1,0-21.9-14.9
	s33.2,0,33.2,0l21.9,10.5l11.4-6.1L817.9,223.4z"/>
<path class="st0" d="M810.5,211.6l-8.7,14c0,0,20.1,2.6,21.9,7s-7.9-22.7-7.9-22.7L810.5,211.6z"/>
</svg>
